<svg width="118" height="134" viewBox="0 0 118 134" fill="none" xmlns="http://www.w3.org/2000/svg">
<path d="M88.8564 0.108019C84.3095 0.581813 79.0182 2.41777 74.3672 5.11988C72.3979 6.26735 70.7089 7.49626 69.0918 8.94725C62.976 14.4403 59.0935 21.7175 58.4691 28.8244C58.373 29.9571 58.4131 32.5704 58.5411 33.0812L58.6052 33.3403L60.1582 33.3625C64.3048 33.4143 68.1793 32.4667 72.1178 30.4235C78.0575 27.3438 83.8132 21.7175 87.0473 15.8321C88.8804 12.4933 89.857 9.5543 90.3534 5.83797C90.4654 4.98662 90.4975 0.544799 90.3934 0.189453C90.3213 -0.0474445 90.3133 -0.0474453 88.8564 0.108019Z" fill="#54B561"/>
<path d="M84.7995 34.9683C82.0652 35.1244 79.8675 35.4502 77.1333 36.1085C75.0973 36.5971 73.5685 37.045 70.4006 38.0969C65.6597 39.6714 62.5359 40.5944 60.9409 40.9066C60.3823 41.0152 60.081 41.0355 59.6694 41.0016C58.0597 40.8726 55.2887 40.1261 50.9154 38.6399C43.0287 35.966 38.9788 35.1312 34.8627 35.3348C29.9308 35.5791 25.6162 36.6107 21.3311 38.5584C15.6494 41.1441 10.8792 44.9853 7.39525 49.7902C4.38905 53.9436 2.33102 58.4295 1.1844 63.3633C-1.322 74.1133 0.177428 87.0145 5.41807 99.8615C8.19642 106.689 11.4378 112.335 15.7671 117.927C20.9636 124.633 24.8739 128.535 28.8723 130.998C32.1946 133.048 35.583 133.917 39.0155 133.604C41.6616 133.36 44.7707 132.566 48.8426 131.1C52.922 129.627 55.5607 128.976 58.927 128.603C60.4191 128.44 63.3738 128.44 64.7704 128.609C67.953 128.983 70.7093 129.668 74.3255 130.992C80.5658 133.279 84.873 133.944 88.7318 133.224C90.9515 132.81 93.1345 131.948 95.2366 130.666C98.9705 128.379 102.712 124.565 107.886 117.758C111.995 112.349 115.038 106.838 117.61 100.147L118 99.1218L117.625 98.9793C116.243 98.4363 113.965 97.2826 112.546 96.4004C109.636 94.5884 106.607 91.9552 104.557 89.4509C101.095 85.2229 99.1616 80.4112 98.6912 74.8734C98.5957 73.7332 98.5957 70.9372 98.6986 69.8309C99.4189 61.7074 103.454 55.138 110.863 50.0277C111.319 49.7088 112.245 49.1115 112.928 48.6976C113.605 48.2904 114.171 47.9307 114.178 47.9035C114.193 47.8764 113.965 47.5642 113.671 47.2113C111.907 45.0328 109.658 42.9358 107.401 41.3613C107.159 41.1916 106.512 40.7776 105.968 40.4451C101.198 37.4997 95.3469 35.7081 88.548 35.1041C87.35 34.9955 85.483 34.9344 84.7995 34.9683Z" fill="#54B561"/>
<path d="M77.6078 96.3523C70.5895 95.4622 65.6215 89.0512 66.5115 82.0329C67.4015 75.0145 73.8125 70.0465 80.8308 70.9365C87.8492 71.8266 92.8172 78.2375 91.9272 85.2559C91.0372 92.2743 84.6262 97.2423 77.6078 96.3523Z" fill="#3B404A"/>
<circle cx="39.3944" cy="83.6443" r="12.8096" transform="rotate(97.2272 39.3944 83.6443)" fill="#3B404A"/>
<rect x="47.2" y="81.125" width="31.5178" height="5.9" fill="#3B404A"/>
</svg>
