<svg width="394" height="666" viewBox="0 0 394 666" fill="none" xmlns="http://www.w3.org/2000/svg">
<path d="M49.4876 207.941C44.0033 191.956 52.5159 174.551 68.501 169.067C84.4861 163.583 92.9987 146.178 87.5145 130.193L70.7485 81.3253C63.7408 60.8998 74.618 38.6609 95.0434 31.6532C115.469 24.6455 137.708 35.5227 144.716 55.9482L162.033 106.424C167.213 121.521 183.65 129.561 198.747 124.381C213.844 119.202 230.282 127.241 235.462 142.338L331.01 420.836C339.972 446.956 326.062 475.394 299.942 484.356L208.005 515.898C181.885 524.86 153.446 510.95 144.485 484.83L49.4876 207.941Z" fill="#54B561"/>
<path d="M343.711 457.853C349.195 473.838 340.682 491.243 324.697 496.727C308.712 502.211 300.2 519.616 305.684 535.601L322.45 584.469C329.458 604.894 318.58 627.133 298.155 634.141C277.729 641.149 255.49 630.271 248.483 609.846L231.165 559.37C225.986 544.273 209.548 536.233 194.451 541.413C179.354 546.592 162.916 538.553 157.737 523.456L62.188 244.958C53.2266 218.839 67.1362 190.4 93.256 181.438L185.194 149.896C211.313 140.934 239.752 154.844 248.714 180.964L343.711 457.853Z" fill="#54B561"/>
<rect x="62.8498" y="100.21" width="107.099" height="18.6998" transform="rotate(-18.9364 62.8498 100.21)" fill="#54B561"/>
<rect x="228.905" y="584.212" width="107.099" height="18.6998" transform="rotate(-18.9364 228.905 584.212)" fill="#54B561"/>
<rect x="17.685" y="99.5305" width="42.4996" height="50.9995" rx="5" transform="rotate(-18.9364 17.685 99.5305)" fill="#54B561"/>
<rect x="183.188" y="581.925" width="42.4996" height="50.9995" rx="5" transform="rotate(-18.9364 183.188 581.925)" fill="#54B561"/>
<rect x="324.691" y="533.377" width="42.4996" height="50.9995" rx="5" transform="rotate(-18.9364 324.691 533.377)" fill="#54B561"/>
<rect x="159.187" y="50.983" width="42.4996" height="50.9995" rx="5" transform="rotate(-18.9364 159.187 50.983)" fill="#54B561"/>
<circle cx="185.568" cy="293.419" r="17.5507" transform="rotate(48.2908 185.568 293.419)" fill="#3B404A"/>
<circle cx="208.609" cy="360.577" r="17.5507" transform="rotate(48.2908 208.609 360.577)" fill="#3B404A"/>
<rect x="191.922" y="303.111" width="45" height="4" transform="rotate(70.6236 191.922 303.111)" fill="#3B404A"/>
</svg>
