<svg width="357" height="357" viewBox="0 0 357 357" fill="none" xmlns="http://www.w3.org/2000/svg">
<circle cx="178.5" cy="178.5" r="178.5" fill="#656C79"/>
<path d="M226.191 155.159L225.031 152.789C223.014 148.665 219.894 145.18 216.017 142.72L215.768 142.522C215.057 141.955 214.175 141.646 213.265 141.646C212.595 141.646 211.936 141.813 211.348 142.133L210.614 142.532C209.734 143.011 208.962 143.665 208.346 144.455L205.507 148.094L200.387 156.961L197.383 162.722C197.051 163.358 196.775 164.021 196.559 164.705L196.331 165.424C195.642 167.6 195.704 169.944 196.508 172.08C196.758 172.746 197.077 173.384 197.461 173.983L206.855 188.665L207.666 189.675C208.536 190.761 209.011 192.11 209.011 193.501C209.011 194.906 208.615 196.282 207.869 197.472L206.316 199.95L200.657 206.667L195.255 213.345C194.376 214.432 193.751 215.702 193.427 217.061L193.3 217.59C192.833 219.549 193.123 221.613 194.112 223.368C194.695 224.401 195.501 225.291 196.471 225.974L199.579 228.161L202.233 229.537C204.69 230.811 206.101 233.473 205.777 236.222L204.883 240.679C204.761 241.289 204.583 241.886 204.351 242.463C203.869 243.665 203.621 244.948 203.621 246.243V246.969C203.794 249.033 204.783 250.942 206.368 252.274L207.047 252.843C208.335 253.925 209.877 254.66 211.528 254.98L216.819 256.006C218.075 256.249 219.358 256.312 220.631 256.191L222.268 256.035C223.643 255.905 224.956 255.398 226.063 254.57C227.074 253.814 227.879 252.815 228.403 251.666L228.952 250.462L231.916 243.208L236.513 229.7C236.836 228.75 237.648 228.05 238.635 227.872C239.494 227.716 240.377 227.975 241.014 228.572L243.574 230.964C244.065 231.423 244.507 231.932 244.893 232.482L249.971 239.715L254.985 245.582C255.771 246.502 256.426 247.527 256.933 248.626C259.23 253.61 264.375 256.647 269.849 256.251L272.071 256.089C274.379 255.922 276.625 255.268 278.662 254.17L282.985 251.84C284.66 250.938 286.065 249.606 287.056 247.983C288.505 245.609 288.977 242.765 288.372 240.051L288.251 239.507C287.887 237.872 287.187 236.33 286.197 234.979L282.578 230.042L272.877 217.683L260.481 203.174L258.614 200.381C257.723 199.049 257.247 197.482 257.247 195.879C257.247 194.327 257.694 192.807 258.533 191.501L275.033 165.827L304.676 129.018L315.185 115.852L322.037 105.225C322.316 104.792 322.497 104.303 322.565 103.792L322.712 102.693C322.874 101.481 322.067 100.351 320.868 100.112C320.498 100.038 320.117 100.056 319.756 100.163L313.453 102.031C311.381 102.645 309.384 103.49 307.5 104.55L299.825 108.867L281.592 121.972C278.302 124.337 275.199 126.952 272.31 129.793L256.978 144.87L242.157 161.797L237.913 166.25C237.353 166.838 236.577 167.171 235.765 167.171C234.865 167.171 234.014 166.762 233.451 166.06L232.186 164.484L228.82 159.637C227.832 158.213 226.953 156.716 226.191 155.159Z" fill="#52B563"/>
<path d="M160.633 254.248L140.722 255.527C140.113 255.566 139.501 255.532 138.901 255.423L138.302 255.316C137.339 255.142 136.441 254.709 135.706 254.063C134.854 253.313 134.262 252.313 134.013 251.205L132.324 243.669L131.42 239.257L130.879 235.51L130.471 231.476C130.384 230.607 130.494 229.73 130.796 228.91C131.202 227.804 131.938 226.849 132.904 226.175L133.717 225.606C135.215 224.56 136.998 223.999 138.825 223.999H141.158H145.366C146.499 223.999 147.603 223.643 148.523 222.981C149.533 222.254 150.261 221.202 150.584 220L150.873 218.931C151.067 218.208 151.166 217.463 151.166 216.715V207.567C151.166 205.732 150.518 203.956 149.336 202.552C148.757 201.864 148.064 201.283 147.287 200.832L145.799 199.969C142.438 198.019 139.815 195.015 138.336 191.422L138.237 191.182C137.841 190.219 137.527 189.224 137.298 188.207L136.389 184.157C136.145 183.072 136.16 181.946 136.432 180.868C136.862 179.166 137.908 177.685 139.368 176.71L145.341 172.72C147.051 171.577 148.92 170.692 150.888 170.093C153.571 169.276 156.39 169.005 159.18 169.295L170.371 170.461H180.354C183.459 170.461 186.407 171.826 188.416 174.193C190.038 176.104 190.929 178.53 190.929 181.037V182.472C190.929 183.915 190.713 185.35 190.289 186.73L188.172 193.614C187.486 195.842 186.992 198.125 186.695 200.437L185.248 211.685V222.587C185.248 224.162 185.941 225.657 187.142 226.676L192.011 230.156L194.283 232.049C196.162 233.615 197.601 235.644 198.458 237.934C199.372 240.375 199.59 243.02 199.09 245.577L198.737 247.382C198.407 249.069 197.605 250.627 196.423 251.875C194.97 253.408 193.027 254.386 190.93 254.639L185.3 255.319C183.826 255.497 182.339 255.542 180.856 255.453L160.633 254.248Z" fill="#52B563"/>
<path d="M54.4477 187.826L55.318 194.157C55.7317 197.167 52.9427 199.625 50.0085 198.836C49.4849 198.695 48.9392 198.656 48.4008 198.721L45.836 199.028C43.6629 199.288 41.6073 200.156 39.9052 201.532C37.9403 203.12 36.5368 205.34 35.9231 207.791C35.3281 210.168 35.4755 212.705 36.361 214.989L37.344 217.524C37.9233 219.019 38.7395 220.41 39.7612 221.645C42.0531 224.415 45.2675 226.265 48.8141 226.855L56.878 228.197C59.6164 228.653 62.2534 229.587 64.6687 230.955L65.2382 231.278C68.9564 233.385 71.9637 236.551 73.8773 240.372C74.6003 241.816 75.1586 243.337 75.5418 244.905L76.8693 250.34C77.3791 252.427 78.4267 254.344 79.9078 255.901C81.7483 257.835 84.1681 259.119 86.8019 259.557L88.4881 259.838C90.0161 260.092 91.5712 260.141 93.1123 259.984L100.809 259.2C102.881 258.989 104.91 258.475 106.833 257.675L109.165 256.705C109.962 256.373 110.694 255.902 111.326 255.313C113.224 253.544 114.034 250.896 113.45 248.368L112.785 245.491L111.443 236.921L110.795 233.847C110.521 232.545 110.712 231.188 111.335 230.013C112.239 228.309 113.946 227.179 115.868 227.014L125.463 226.188C127.316 226.028 129.046 225.19 130.319 223.834C131.633 222.434 132.365 220.586 132.365 218.667V203.644C132.365 202.276 132.077 200.923 131.521 199.673L131.345 199.277C130.613 197.634 129.377 196.268 127.815 195.377C126.922 194.867 125.943 194.525 124.927 194.367L118.895 193.43C115.908 192.966 112.872 192.903 109.868 193.241L99.1253 194.452C98.2312 194.553 97.326 194.436 96.4872 194.11C94.3465 193.279 92.9361 191.218 92.9361 188.922V178.526C92.9361 176.932 93.1199 175.342 93.4838 173.79L95.7553 164.099C95.8426 163.727 95.9638 163.363 96.1174 163.012L97.0585 160.864C97.4872 159.886 98.4542 159.254 99.5223 159.254C100.708 159.254 101.754 160.03 102.097 161.165L104.915 170.486C105.502 172.427 106.584 174.183 108.054 175.581L109.114 176.589C110.61 178.012 112.594 178.805 114.658 178.805C116.067 178.805 117.45 178.435 118.671 177.732L122.919 175.287C132.862 169.564 137.967 158.073 135.55 146.859L135.047 144.524L133.438 125.241L132.365 120.153L130.824 114.192C130.427 112.656 129.651 111.243 128.568 110.084C127.2 108.621 125.406 107.628 123.44 107.246L119.973 106.573C117.876 106.166 115.728 106.091 113.608 106.351L107.577 107.091C103.57 107.582 99.6836 108.782 96.0984 110.636L86.4988 115.6L77.9935 121.595C74.5735 124.005 71.6278 127.026 69.3044 130.506L66.32 134.976C64.9351 137.05 63.7826 139.27 62.8833 141.597L59.682 149.878C58.787 152.194 58.1482 154.6 57.7771 157.055L56.1896 167.556L54.4086 185.848C54.3444 186.506 54.3576 187.17 54.4477 187.826Z" fill="#52B563"/>
<path d="M149.761 151.153L148.389 115.028C148.277 112.077 149.349 109.204 151.366 107.047L151.644 106.75C152.584 105.745 153.736 104.962 155.016 104.458C156.906 103.713 158.987 103.61 160.941 104.165L162.169 104.513C163.824 104.982 165.369 105.774 166.717 106.843L180.868 118.07L193.323 130.686C194.888 132.271 196.018 134.232 196.603 136.381C197.42 139.38 197.131 142.573 195.789 145.376L193.551 150.05L189.679 157.241C189.028 158.449 188.152 159.522 187.098 160.401C185.165 162.013 182.727 162.897 180.209 162.897H178.709H174.121L163.866 161.53H161.135C159.379 161.53 157.646 161.141 156.058 160.391L155.929 160.329C154.929 159.857 154.007 159.236 153.194 158.487L153.108 158.408C152.017 157.403 151.153 156.177 150.575 154.811C150.085 153.651 149.809 152.412 149.761 151.153Z" fill="#52B563"/>
</svg>
