<svg width="173" height="58" viewBox="0 0 173 58" fill="none" xmlns="http://www.w3.org/2000/svg">
<path d="M104.451 19.6848L104.037 18.8388C103.317 17.3671 102.204 16.1235 100.82 15.2457L100.731 15.1747C100.478 14.9724 100.163 14.8622 99.8382 14.8622C99.5992 14.8622 99.364 14.922 99.154 15.0362L98.8921 15.1786C98.5781 15.3494 98.3027 15.5829 98.0829 15.8647L97.0697 17.1634L95.2425 20.3276L94.1702 22.3837C94.0518 22.6107 93.9535 22.8474 93.8762 23.0914L93.7949 23.3479C93.549 24.1244 93.5712 24.961 93.8579 25.7234C93.9473 25.961 94.0613 26.1885 94.1981 26.4023L97.5506 31.6421L97.8399 32.0026C98.1506 32.3899 98.3199 32.8715 98.3199 33.368C98.3199 33.8692 98.1787 34.3603 97.9125 34.785L97.3582 35.6692L95.3387 38.0664L93.411 40.4497C93.0973 40.8375 92.8743 41.2906 92.7585 41.7758L92.7134 41.9645C92.5464 42.6638 92.6499 43.4004 93.0032 44.0265C93.2112 44.3952 93.4988 44.713 93.845 44.9566L94.954 45.7372L95.9011 46.2282C96.7779 46.6828 97.2816 47.6328 97.1659 48.6137L96.8468 50.2045C96.8032 50.422 96.7397 50.635 96.6571 50.8409C96.485 51.2699 96.3966 51.7278 96.3966 52.1899V52.4491C96.4581 53.1856 96.811 53.867 97.377 54.3422L97.6191 54.5454C98.0787 54.9314 98.6291 55.1938 99.2183 55.3081L101.107 55.6742C101.555 55.761 102.013 55.7832 102.467 55.7401L103.051 55.6846C103.542 55.638 104.01 55.4571 104.405 55.1618C104.766 54.8919 105.054 54.5354 105.241 54.1252L105.436 53.6956L106.494 51.1067L108.135 46.2862C108.25 45.9473 108.54 45.6976 108.892 45.6337C109.199 45.5781 109.514 45.6708 109.741 45.8835L110.654 46.7372C110.83 46.9011 110.988 47.0827 111.125 47.2791L112.938 49.8602L114.727 51.9542C115.007 52.2826 115.241 52.6481 115.422 53.0403C116.242 54.8189 118.078 55.9031 120.031 55.7614L120.824 55.7039C121.648 55.6442 122.45 55.4108 123.176 55.0191L124.719 54.1875C125.317 53.8654 125.818 53.3903 126.172 52.8108C126.689 51.9637 126.858 50.9489 126.642 49.9802L126.599 49.7861C126.469 49.2026 126.219 48.6524 125.866 48.1703L124.574 46.4084L121.112 41.9977L116.688 36.8199L116.022 35.8232C115.704 35.3477 115.534 34.7886 115.534 34.2167C115.534 33.6626 115.694 33.1202 115.993 32.6541L121.881 23.4918L132.46 10.3556L136.211 5.65722L138.656 1.86469C138.756 1.71017 138.82 1.53556 138.844 1.35332L138.897 0.960922C138.955 0.528411 138.666 0.125351 138.239 0.0400168C138.107 0.013735 137.971 0.0199604 137.842 0.0581544L135.592 0.724891C134.853 0.944095 134.14 1.24558 133.468 1.62369L130.729 3.16421L127.401 5.5565C124.111 7.92138 121.008 10.5359 118.119 13.3768L115.438 16.0128L110.149 22.0536L108.635 23.6428C108.435 23.8526 108.158 23.9713 107.868 23.9713C107.547 23.9713 107.243 23.8255 107.042 23.575L106.59 23.0124L105.389 21.2826C105.037 20.7745 104.723 20.2404 104.451 19.6848Z" fill="#52B563"/>
<path d="M81.0557 55.0467L73.9501 55.5033C73.7327 55.5173 73.5144 55.5049 73.3 55.4663L73.0864 55.4279C72.7426 55.366 72.4223 55.2114 72.16 54.9807C71.8559 54.7132 71.6444 54.3562 71.5558 53.961L70.953 51.2714L70.6303 49.697L70.4372 48.3596L70.2918 46.9202C70.2604 46.6101 70.3 46.297 70.4075 46.0045C70.5525 45.6098 70.8151 45.269 71.1598 45.0282L71.4502 44.8254C71.9847 44.452 72.621 44.2518 73.273 44.2518H74.1054H75.6072C76.0116 44.2518 76.4057 44.1247 76.7339 43.8885C77.0942 43.6291 77.3541 43.2535 77.4696 42.8248L77.5724 42.4431C77.6419 42.1852 77.6771 41.9193 77.6771 41.6522V38.3877C77.6771 37.7328 77.4458 37.0988 77.0239 36.5978C76.8174 36.3526 76.57 36.145 76.2927 35.9841L75.7619 35.6762C74.5625 34.9804 73.6262 33.9082 73.0984 32.626L73.0632 32.5405C72.9217 32.1967 72.8096 31.8415 72.7281 31.4788L72.4035 30.0333C72.3166 29.6462 72.3219 29.2441 72.4191 28.8595C72.5725 28.2522 72.9458 27.7235 73.4666 27.3756L75.5982 25.9517C76.2086 25.5439 76.8755 25.2281 77.5778 25.0143C78.5352 24.7227 79.5415 24.6259 80.537 24.7296L84.5309 25.1457H88.0933C89.2014 25.1457 90.2535 25.6327 90.9706 26.4775C91.5495 27.1595 91.8673 28.0251 91.8673 28.9197V29.4319C91.8673 29.947 91.7904 30.4591 91.639 30.9514L91.0057 33.0106C90.6797 34.0704 90.4448 35.1561 90.3033 36.2558L89.8402 39.8574V43.7478C89.8402 44.3099 90.0873 44.8435 90.5159 45.2071L92.2535 46.449L93.0643 47.1247C93.7349 47.6836 94.2485 48.4074 94.5544 49.2249C94.8803 50.0958 94.9584 51.0399 94.7799 51.9524L94.6539 52.5966C94.5362 53.1986 94.2497 53.7547 93.8279 54.1999C93.3094 54.7472 92.6161 55.0961 91.8677 55.1865L89.8587 55.4289C89.3326 55.4924 88.8018 55.5085 88.2727 55.477L81.0557 55.0467Z" fill="#52B563"/>
<path d="M43.161 31.3426L43.4716 33.6019C43.6193 34.6761 42.6239 35.5533 41.5768 35.2718C41.3899 35.2216 41.1952 35.2076 41.0031 35.2306L40.0878 35.3403C39.3123 35.4332 38.5787 35.7429 37.9712 36.2339C37.27 36.8007 36.7691 37.593 36.5501 38.4677C36.3378 39.3158 36.3904 40.2211 36.7064 41.0362L37.0572 41.9411C37.264 42.4744 37.5552 42.9709 37.9198 43.4116C38.7377 44.4002 39.8849 45.0605 41.1506 45.2711L44.0283 45.75C45.0056 45.9126 45.9467 46.2458 46.8086 46.7342L47.0119 46.8494C48.3388 47.6014 49.412 48.7312 50.0949 50.0949C50.3529 50.6101 50.5522 51.1528 50.6889 51.7125L51.1627 53.652C51.3446 54.3969 51.7185 55.0812 52.247 55.6367C52.9039 56.327 53.7674 56.785 54.7074 56.9414L55.3091 57.0415C55.8544 57.1323 56.4094 57.1498 56.9593 57.0938L59.7061 56.814C60.4454 56.7386 61.1697 56.5553 61.8558 56.2699L62.6881 55.9236C62.9727 55.8052 63.2338 55.637 63.4592 55.4269C64.1367 54.7956 64.4257 53.8506 64.2171 52.9483L63.9798 51.9216L63.5012 48.8631L63.2699 47.7662C63.172 47.3016 63.2402 46.8174 63.4625 46.398C63.785 45.7898 64.3941 45.3867 65.08 45.3277L68.5044 45.0329C69.1659 44.976 69.783 44.6768 70.2374 44.1928C70.7064 43.6933 70.9675 43.0339 70.9675 42.3487V36.9877C70.9675 36.4994 70.8649 36.0166 70.6663 35.5704L70.6034 35.4291C70.3424 34.8429 69.9012 34.3552 69.3438 34.0372C69.025 33.8554 68.6757 33.7332 68.313 33.6769L66.3676 33.3747C65.164 33.1878 63.9409 33.1622 62.7305 33.2987L59.1052 33.7074C58.7861 33.7433 58.4631 33.7014 58.1638 33.5852C57.3998 33.2885 56.8965 32.5531 56.8965 31.7336V28.0238C56.8965 27.4547 56.9621 26.8876 57.0919 26.3336L57.9026 22.8751C57.9337 22.7422 57.977 22.6124 58.0318 22.4873L58.3676 21.7208C58.5206 21.3716 58.8657 21.1461 59.2469 21.1461C59.6701 21.1461 60.0433 21.4232 60.1658 21.8282L61.1714 25.1543C61.3809 25.8473 61.7669 26.4739 62.2915 26.9728L62.6699 27.3326C63.2036 27.8401 63.9119 28.1231 64.6484 28.1231C65.1511 28.1231 65.645 27.9911 66.0806 27.7404L67.5967 26.8678C71.1448 24.8255 72.9668 20.7248 72.1043 16.7228L71.9247 15.8894L71.3504 9.00794L70.9675 7.19199L70.4177 5.0648C70.276 4.51644 69.9991 4.01235 69.6123 3.5986C69.1244 3.07658 68.4839 2.72216 67.7824 2.58598L66.5453 2.34578C65.7968 2.20047 65.0302 2.17372 64.2735 2.26651L62.8597 2.43988C60.9416 2.67508 59.0807 3.24993 57.3641 4.13753L54.5992 5.5672L52.5482 7.01276C50.6771 8.33155 49.0654 9.98438 47.7943 11.8882C47.0366 13.023 46.4061 14.2378 45.9141 15.5105L45.5989 16.3259C44.9007 18.1321 44.4024 20.0094 44.113 21.9242L43.7827 24.1089L43.1471 30.6366C43.1242 30.8717 43.1289 31.1086 43.161 31.3426Z" fill="#52B563"/>
<path d="M77.1756 18.2553L76.686 5.36327C76.646 4.31005 77.0286 3.28452 77.7486 2.51477L77.8476 2.40889C78.183 2.05027 78.5941 1.77084 79.051 1.59088C79.7253 1.32526 80.4683 1.2885 81.1655 1.48625L81.6036 1.61047C82.1942 1.77797 82.7459 2.06065 83.2268 2.44224L88.2767 6.44878L92.7218 10.951C93.2802 11.5166 93.6833 12.2166 93.8922 12.9835C94.1837 14.0537 94.0806 15.193 93.6016 16.1934L92.8031 17.8615L91.4211 20.4277C91.1889 20.8589 90.8764 21.2416 90.5003 21.5553C89.8103 22.1308 88.9403 22.446 88.0418 22.446H87.5063H85.869L82.2094 21.9583H81.2346C80.6081 21.9583 79.9894 21.8195 79.423 21.5517L79.3767 21.5298C79.02 21.3613 78.691 21.1396 78.4008 20.8724L78.3701 20.8441C77.9807 20.4856 77.6725 20.0479 77.4662 19.5604C77.2911 19.1465 77.1926 18.7043 77.1756 18.2553Z" fill="#52B563"/>
<path d="M163.337 31.2097L160.172 37.9912C159.906 38.5609 160.226 39.2318 160.836 39.3842L162.422 39.7807C162.949 39.9127 163.486 39.5985 163.629 39.0737L163.84 38.2999C164.024 37.6258 164.908 37.4676 165.314 38.0362C165.599 38.435 166.166 38.501 166.535 38.1782L166.923 37.8389C167.522 37.3143 168.464 37.6671 168.572 38.4563L168.635 38.9229C168.715 39.5092 169.284 39.8983 169.86 39.7602L171.716 39.3148C172.238 39.1893 172.568 38.6733 172.463 38.1463L171.135 31.5095C170.984 30.7544 170.072 30.4462 169.494 30.9549L167.686 32.5458C167.269 32.9131 166.632 32.8694 166.269 32.4487L165 30.979C164.526 30.4301 163.643 30.5525 163.337 31.2097Z" fill="#54B561"/>
<path d="M149.451 37.0792C148.909 35.3454 150.463 32.536 151.619 30.8951C151.882 30.5226 152.372 30.4012 152.789 30.5839L153.536 30.9103C154.08 31.1486 154.296 31.8059 154.04 32.3425C153.334 33.8238 152.744 35.6872 153.936 35.6872C155.206 35.6872 155.887 33.4269 156.155 31.8044C156.229 31.359 156.566 30.9955 157.011 30.9213L157.913 30.771C158.51 30.6715 159.061 31.1252 159.046 31.7301C158.878 38.531 155.12 39.9043 153.163 39.7087C152.184 39.6571 150.07 39.059 149.451 37.0792Z" fill="#54B561"/>
<path d="M147.286 31.0343V32.3134C147.286 32.8863 146.805 33.3367 146.232 33.3383C144.447 33.3434 142.491 33.677 142.491 35.3781C142.491 36.5084 143.294 36.6062 143.887 36.3004C144.436 36.0171 145.064 35.3781 145.682 35.3781H146.487C147.132 35.3781 147.608 35.9795 147.46 36.6072L146.694 39.866C146.587 40.3177 146.184 40.637 145.72 40.637H143.561C143.311 40.637 143.109 40.435 143.109 40.1858C143.109 39.9269 142.891 39.7229 142.634 39.6987C140.817 39.5279 138.52 37.8815 139.088 34.7595C139.7 31.3945 143.821 30.1919 146.372 30.1002C146.89 30.0816 147.286 30.5164 147.286 31.0343Z" fill="#54B561"/>
<path d="M11.8996 31.761L12.5991 29.9623C12.7439 29.5901 13.0986 29.3396 13.4977 29.3255C17.2006 29.1947 17.4857 29.2025 17.7872 29.3489C21.4327 31.1197 20.7309 33.1607 19.5564 34.3466C19.1982 34.7083 19.0491 35.2577 19.2863 35.7083L19.9499 36.9692C20.2075 37.4586 20.0189 38.0642 19.529 38.3208L18.0421 39.0997C17.5576 39.3534 16.9592 39.171 16.6988 38.6901L16.3258 38.0016C15.9379 37.2854 14.8647 37.4567 14.719 38.2581C14.6244 38.7784 14.0881 39.0918 13.5884 38.9188L11.4752 38.1874C10.9484 38.005 10.6724 37.4271 10.8618 36.9027L12.396 32.654C12.4657 32.4612 12.3475 32.2515 12.1464 32.2113C11.9421 32.1704 11.8241 31.9551 11.8996 31.761Z" fill="#54B561"/>
<path d="M0.300121 37.4242L2.34414 30.2702C2.42678 29.9809 2.63426 29.743 2.9272 29.6747C4.57166 29.2908 8.81628 29.1521 9.58965 31.0504C11.0652 34.6721 7.53851 36.5101 5.06282 36.867C4.49894 36.9483 4.02147 37.4037 4.02147 37.9734V38.0374C4.02147 38.6654 3.44935 39.138 2.83262 39.0194L1.0728 38.681C0.496265 38.5701 0.138833 37.9887 0.300121 37.4242Z" fill="#54B561"/>
<ellipse cx="27.9211" cy="34.3589" rx="4.87318" ry="5.67799" transform="rotate(31.6413 27.9211 34.3589)" fill="#54B561"/>
<ellipse cx="27.9915" cy="34.3078" rx="1.37188" ry="1.59845" transform="rotate(31.6413 27.9915 34.3078)" fill="#717885"/>
<path d="M4.62486 33.1363L4.73053 32.74C4.8569 32.2662 5.31169 31.8449 5.79889 31.9011C6.13336 31.9397 6.48357 32.1113 6.8058 32.6914C7.24504 33.482 6.41095 34.0076 5.46582 34.1906C4.87271 34.3054 4.4692 33.72 4.62486 33.1363Z" fill="#717885"/>
<path d="M15.7282 33.2995L15.7757 33.1043C15.8946 32.6164 16.3778 32.117 16.8555 32.272C17.0835 32.346 17.3154 32.5307 17.5322 32.9577C17.8759 33.6349 17.2852 34.0992 16.5599 34.2922C15.9891 34.4441 15.5884 33.8734 15.7282 33.2995Z" fill="#717885"/>
</svg>
