<svg width="652" height="357" viewBox="0 0 652 357" fill="none" xmlns="http://www.w3.org/2000/svg">
<rect y="119" width="652" height="106" rx="50" fill="#3B404A"/>
<circle cx="326.5" cy="178.5" r="178.5" fill="#656C79"/>
<path d="M599.131 156.4L586.297 183.901C586.031 184.471 586.351 185.142 586.961 185.294L596.835 187.763C597.362 187.895 597.899 187.58 598.042 187.056L600.23 179.032C600.452 178.219 601.519 178.028 602.009 178.714L605.143 183.102C605.486 183.583 606.17 183.662 606.615 183.273L612.386 178.224C612.986 177.699 613.928 178.052 614.035 178.841L615.135 186.905C615.215 187.491 615.784 187.88 616.359 187.742L626.848 185.225C627.371 185.099 627.701 184.583 627.596 184.056L622.124 156.7C621.973 155.945 621.061 155.636 620.483 156.145L610.042 165.333C609.625 165.7 608.988 165.657 608.625 165.236L600.794 156.169C600.32 155.62 599.438 155.743 599.131 156.4Z" fill="#54B561"/>
<path d="M552.784 178.5C550.867 172.364 557.068 162.063 560.815 157.11C561.089 156.746 561.576 156.628 561.993 156.81L568.265 159.554C568.809 159.792 569.027 160.449 568.745 160.972C566.115 165.848 562.799 174 567.284 174C571.853 174 574.066 164.942 574.7 159.757C574.755 159.309 575.094 158.948 575.539 158.874L582.657 157.688C583.254 157.588 583.802 158.053 583.812 158.658C584.179 182.853 571.348 187.656 564.784 187C561.618 186.833 554.784 184.9 552.784 178.5Z" fill="#54B561"/>
<path d="M545.784 156.915V165.446C545.784 166.019 545.305 166.474 544.733 166.452C538.485 166.208 530.284 166.737 530.284 173C530.284 178.217 535.577 176.63 536.629 174.154C536.871 173.586 537.347 173 537.965 173H546.022C546.667 173 547.143 173.601 546.995 174.229L543.466 189.229C543.36 189.681 542.956 190 542.492 190H533.284C532.732 190 532.284 189.552 532.284 189V188.057C532.284 187.483 531.802 187.03 531.229 187.002C525.291 186.705 517.399 181.371 519.284 171C521.435 159.168 537.012 155.606 544.876 155.941C545.393 155.963 545.784 156.397 545.784 156.915Z" fill="#54B561"/>
<path d="M59.4315 164.586L62.2614 157.309C62.4062 156.936 62.768 156.686 63.1671 156.671C76.5313 156.195 77.4872 156.203 78.5 156.695C91.7838 163.148 87.2115 170.71 82.7224 174.172C82.3192 174.483 82.1793 175.036 82.4164 175.486L86.5333 183.308C86.7909 183.798 86.6023 184.403 86.1124 184.66L77.3736 189.238C76.8892 189.491 76.2908 189.309 76.0303 188.828L71.3545 180.196C70.9046 179.365 69.6602 179.564 69.4913 180.493L68.2087 187.547C68.099 188.151 67.4771 188.514 66.8977 188.314L55.9576 184.527C55.4308 184.344 55.1548 183.766 55.3442 183.242L61.1055 167.288C61.3132 166.712 60.9607 166.087 60.3611 165.967L60.1674 165.929C59.5581 165.807 59.2063 165.165 59.4315 164.586Z" fill="#54B561"/>
<path d="M21.3001 185.145L28.8694 158.652C28.952 158.363 29.1551 158.125 29.4405 158.03C33.7157 156.608 49.3175 155.611 52 162.195C57.2573 175.099 42.8704 180.999 35.0401 181.203C34.4706 181.218 34 181.671 34 182.241V187.485C34 188.113 33.4279 188.585 32.8112 188.467L22.0728 186.402C21.4963 186.291 21.1388 185.709 21.3001 185.145Z" fill="#54B561"/>
<ellipse cx="111.26" cy="172.891" rx="15.7533" ry="18.355" transform="rotate(31.6413 111.26 172.891)" fill="#54B561"/>
<ellipse cx="111.486" cy="172.726" rx="4.43482" ry="5.16723" transform="rotate(31.6413 111.486 172.726)" fill="#3B404A"/>
<path d="M35.2938 171.398L36.7808 165.822C36.9072 165.348 37.3604 165.03 37.8496 164.996C39.4068 164.885 41.3209 164.478 43 167.5C44.8115 170.761 39.923 172.627 36.137 172.578C35.5329 172.57 35.1381 171.982 35.2938 171.398Z" fill="#3B404A"/>
<path d="M71.2609 171.857L72.461 166.931C72.5799 166.443 73.0446 166.104 73.5448 166.06C74.8123 165.947 76.3336 165.718 77.6751 168.361C79.1629 171.293 75.2345 172.99 72.0982 173C71.5076 173.002 71.1211 172.431 71.2609 171.857Z" fill="#3B404A"/>
<path d="M374.191 155.159L373.031 152.789C371.014 148.665 367.894 145.18 364.017 142.72L363.768 142.522C363.057 141.955 362.175 141.646 361.265 141.646C360.595 141.646 359.936 141.813 359.348 142.133L358.614 142.532C357.734 143.011 356.962 143.665 356.346 144.455L353.507 148.094L348.387 156.961L345.383 162.722C345.051 163.358 344.775 164.021 344.559 164.705L344.331 165.424C343.642 167.6 343.704 169.944 344.508 172.08C344.758 172.746 345.077 173.384 345.461 173.983L354.855 188.665L355.666 189.675C356.536 190.761 357.011 192.11 357.011 193.501C357.011 194.906 356.615 196.282 355.869 197.472L354.316 199.95L348.657 206.667L343.255 213.345C342.376 214.432 341.751 215.702 341.427 217.061L341.3 217.59C340.833 219.549 341.123 221.613 342.112 223.368C342.695 224.401 343.501 225.291 344.471 225.974L347.579 228.161L350.233 229.537C352.69 230.811 354.101 233.473 353.777 236.222L352.883 240.679C352.761 241.289 352.583 241.886 352.351 242.463C351.869 243.665 351.621 244.948 351.621 246.243V246.969C351.794 249.033 352.783 250.942 354.368 252.274L355.047 252.843C356.335 253.925 357.877 254.66 359.528 254.98L364.819 256.006C366.075 256.249 367.358 256.312 368.631 256.191L370.268 256.035C371.643 255.905 372.956 255.398 374.063 254.57C375.074 253.814 375.879 252.815 376.403 251.666L376.952 250.462L379.916 243.208L384.513 229.7C384.836 228.75 385.648 228.05 386.635 227.872C387.494 227.716 388.377 227.975 389.014 228.572L391.574 230.964C392.065 231.423 392.507 231.932 392.893 232.482L397.971 239.715L402.985 245.582C403.771 246.502 404.426 247.527 404.933 248.626C407.23 253.61 412.375 256.647 417.849 256.251L420.071 256.089C422.379 255.922 424.625 255.268 426.662 254.17L430.985 251.84C432.66 250.938 434.065 249.606 435.056 247.983C436.505 245.609 436.977 242.765 436.372 240.051L436.251 239.507C435.887 237.872 435.187 236.33 434.197 234.979L430.578 230.042L420.877 217.683L408.481 203.174L406.614 200.381C405.723 199.049 405.247 197.482 405.247 195.879C405.247 194.327 405.694 192.807 406.533 191.501L423.033 165.827L452.676 129.018L463.185 115.852L470.037 105.225C470.316 104.792 470.497 104.303 470.565 103.792L470.712 102.693C470.874 101.481 470.067 100.351 468.868 100.112C468.498 100.038 468.117 100.056 467.756 100.163L461.453 102.031C459.381 102.645 457.384 103.49 455.5 104.55L447.825 108.867L429.592 121.972C426.302 124.337 423.199 126.952 420.31 129.793L404.978 144.87L390.157 161.797L385.913 166.25C385.353 166.838 384.577 167.171 383.765 167.171C382.865 167.171 382.014 166.762 381.451 166.06L380.186 164.484L376.82 159.637C375.832 158.213 374.953 156.716 374.191 155.159Z" fill="#52B563"/>
<path d="M308.633 254.248L288.722 255.527C288.113 255.566 287.501 255.532 286.901 255.423L286.302 255.316C285.339 255.142 284.441 254.709 283.706 254.063C282.854 253.313 282.262 252.313 282.013 251.205L280.324 243.669L279.42 239.257L278.879 235.51L278.471 231.476C278.384 230.607 278.494 229.73 278.796 228.91C279.202 227.804 279.938 226.849 280.904 226.175L281.717 225.606C283.215 224.56 284.998 223.999 286.825 223.999H289.158H293.366C294.499 223.999 295.603 223.643 296.523 222.981C297.533 222.254 298.261 221.202 298.584 220L298.873 218.931C299.067 218.208 299.166 217.463 299.166 216.715V207.567C299.166 205.732 298.518 203.956 297.336 202.552C296.757 201.865 296.064 201.283 295.287 200.832L293.799 199.969C290.438 198.019 287.815 195.015 286.336 191.422L286.237 191.182C285.841 190.219 285.527 189.224 285.298 188.207L284.389 184.157C284.145 183.072 284.16 181.946 284.432 180.868C284.862 179.166 285.908 177.685 287.368 176.71L293.341 172.72C295.051 171.577 296.92 170.692 298.888 170.093C301.571 169.276 304.39 169.005 307.18 169.295L318.371 170.461H328.354C331.459 170.461 334.407 171.826 336.416 174.193C338.038 176.104 338.929 178.53 338.929 181.037V182.472C338.929 183.915 338.713 185.35 338.289 186.73L336.172 193.614C335.486 195.842 334.992 198.125 334.695 200.437L333.248 211.685V222.587C333.248 224.162 333.941 225.657 335.142 226.676L340.011 230.156L342.283 232.049C344.162 233.615 345.601 235.644 346.458 237.934C347.372 240.375 347.59 243.02 347.09 245.577L346.737 247.382C346.407 249.069 345.605 250.627 344.423 251.875C342.97 253.408 341.027 254.386 338.93 254.639L333.3 255.319C331.826 255.497 330.339 255.542 328.856 255.453L308.633 254.248Z" fill="#52B563"/>
<path d="M202.448 187.826L203.318 194.157C203.732 197.167 200.943 199.625 198.008 198.836C197.485 198.695 196.939 198.656 196.401 198.721L193.836 199.028C191.663 199.288 189.607 200.156 187.905 201.532C185.94 203.12 184.537 205.34 183.923 207.791C183.328 210.168 183.475 212.705 184.361 214.989L185.344 217.524C185.923 219.019 186.74 220.41 187.761 221.645C190.053 224.415 193.268 226.265 196.814 226.855L204.878 228.197C207.616 228.653 210.253 229.587 212.669 230.955L213.238 231.278C216.956 233.385 219.964 236.551 221.877 240.372C222.6 241.816 223.159 243.337 223.542 244.905L224.869 250.34C225.379 252.427 226.427 254.344 227.908 255.901C229.748 257.835 232.168 259.119 234.802 259.557L236.488 259.838C238.016 260.092 239.571 260.141 241.112 259.984L248.809 259.2C250.881 258.989 252.91 258.475 254.833 257.675L257.165 256.705C257.962 256.373 258.694 255.902 259.326 255.313C261.224 253.544 262.034 250.896 261.45 248.368L260.785 245.491L259.443 236.921L258.795 233.847C258.521 232.545 258.712 231.188 259.335 230.013C260.239 228.309 261.946 227.179 263.868 227.014L273.463 226.188C275.316 226.028 277.046 225.19 278.319 223.834C279.633 222.434 280.365 220.586 280.365 218.667V203.644C280.365 202.276 280.077 200.923 279.521 199.673L279.345 199.277C278.613 197.634 277.377 196.268 275.815 195.377C274.922 194.867 273.943 194.525 272.927 194.367L266.895 193.43C263.908 192.966 260.872 192.903 257.868 193.241L247.125 194.452C246.231 194.553 245.326 194.436 244.487 194.11C242.347 193.279 240.936 191.218 240.936 188.922V178.526C240.936 176.932 241.12 175.342 241.484 173.79L243.755 164.099C243.843 163.727 243.964 163.363 244.117 163.012L245.059 160.864C245.487 159.886 246.454 159.254 247.522 159.254C248.708 159.254 249.754 160.03 250.097 161.165L252.915 170.486C253.502 172.427 254.584 174.183 256.054 175.581L257.114 176.589C258.61 178.012 260.594 178.805 262.658 178.805C264.067 178.805 265.45 178.435 266.671 177.732L270.919 175.287C280.862 169.564 285.967 158.073 283.55 146.859L283.047 144.524L281.438 125.241L280.365 120.153L278.824 114.192C278.427 112.656 277.651 111.243 276.568 110.084C275.2 108.621 273.406 107.628 271.44 107.246L267.973 106.573C265.876 106.166 263.728 106.091 261.608 106.351L255.577 107.091C251.57 107.582 247.684 108.782 244.098 110.636L234.499 115.6L225.994 121.595C222.574 124.005 219.628 127.026 217.304 130.506L214.32 134.976C212.935 137.05 211.783 139.27 210.883 141.597L207.682 149.878C206.787 152.194 206.148 154.6 205.777 157.055L204.19 167.556L202.409 185.848C202.344 186.506 202.358 187.17 202.448 187.826Z" fill="#52B563"/>
<path d="M297.761 151.153L296.389 115.028C296.277 112.077 297.349 109.204 299.366 107.047L299.644 106.75C300.584 105.745 301.736 104.962 303.016 104.458C304.906 103.713 306.987 103.61 308.941 104.165L310.169 104.513C311.824 104.982 313.369 105.774 314.717 106.843L328.868 118.07L341.323 130.686C342.888 132.271 344.018 134.232 344.603 136.381C345.42 139.38 345.131 142.573 343.789 145.376L341.551 150.05L337.679 157.241C337.028 158.449 336.152 159.522 335.098 160.401C333.165 162.013 330.727 162.897 328.209 162.897H326.709H322.121L311.866 161.53H309.135C307.379 161.53 305.646 161.141 304.058 160.391L303.929 160.329C302.929 159.857 302.007 159.236 301.194 158.487L301.108 158.408C300.017 157.403 299.153 156.177 298.575 154.811C298.085 153.651 297.809 152.412 297.761 151.153Z" fill="#52B563"/>
</svg>
