<svg width="212" height="137" viewBox="0 0 212 137" fill="none" xmlns="http://www.w3.org/2000/svg">
<path d="M142.438 18.7809C147.413 16.6923 153.14 19.0324 155.228 24.0076C157.317 28.9828 163.043 31.3229 168.019 29.2343L183.228 22.8492C189.586 20.1804 196.903 23.1705 199.571 29.5277C202.24 35.8849 199.25 43.202 192.893 45.8708L177.183 52.466C172.484 54.4385 170.274 59.8468 172.246 64.5456C174.219 69.2444 172.009 74.6527 167.31 76.6252L94.9376 107.007C78.9063 113.737 60.4546 106.197 53.7247 90.1659C46.9947 74.1346 54.5349 55.6829 70.5662 48.953L142.438 18.7809Z" fill="#54B561"/>
<path d="M69.1089 117.85C64.1336 119.939 58.4072 117.599 56.3186 112.624C54.23 107.649 48.5036 105.308 43.5284 107.397L28.3187 113.782C21.9614 116.451 14.6444 113.461 11.9756 107.104C9.30683 100.746 12.2969 93.4294 18.6542 90.7606L34.3644 84.1654C39.0632 82.1928 41.2732 76.7846 39.3006 72.0857C37.3281 67.3869 39.5381 61.9787 44.237 60.0061L116.609 29.624C132.641 22.894 151.092 30.4342 157.822 46.4655C164.552 62.4967 157.012 80.9484 140.981 87.6784L69.1089 117.85Z" fill="#54B561"/>
<rect x="177.043" y="20.7363" width="34.1952" height="5.97059" transform="rotate(67.2272 177.043 20.7363)" fill="#54B561"/>
<rect x="26.402" y="83.976" width="34.1952" height="5.97059" transform="rotate(67.2272 26.402 83.976)" fill="#54B561"/>
<rect x="176.295" y="6.33362" width="13.5695" height="16.2834" rx="5" transform="rotate(67.2272 176.295 6.33362)" fill="#54B561"/>
<rect x="26.1542" y="69.3633" width="13.5695" height="16.2834" rx="5" transform="rotate(67.2272 26.1542 69.3633)" fill="#54B561"/>
<rect x="44.6429" y="113.405" width="13.5695" height="16.2834" rx="5" transform="rotate(67.2272 44.6429 113.405)" fill="#54B561"/>
<rect x="194.784" y="50.375" width="13.5695" height="16.2834" rx="5" transform="rotate(67.2272 194.784 50.375)" fill="#54B561"/>
<circle cx="121.788" cy="61.5925" r="8.68449" transform="rotate(67.2272 121.788 61.5925)" fill="#3B404A"/>
<circle cx="95.6838" cy="73.7287" r="8.68449" transform="rotate(67.2272 95.6838 73.7287)" fill="#3B404A"/>
<rect x="98.8575" y="70.0238" width="21.368" height="4" transform="rotate(-23.6232 98.8575 70.0238)" fill="#3B404A"/>
</svg>
