<svg width="116" height="374" viewBox="0 0 116 374" fill="none" xmlns="http://www.w3.org/2000/svg">
<path d="M0 89.3909C0 79.4498 8.05888 71.3909 18 71.3909V71.3909C27.9411 71.3909 36 63.3321 36 53.3909V23C36 10.2975 46.2975 0 59 0V0V0C71.7026 0 82 10.2975 82 23V54.3909C82 63.7798 89.6112 71.3909 99 71.3909V71.3909C108.389 71.3909 116 79.0021 116 88.3909V241C116 268.614 93.6142 291 66 291H50C22.3858 291 0 268.614 0 241V89.3909Z" fill="#54B561"/>
<path d="M116 284.609C116 294.55 107.941 302.609 98 302.609V302.609C88.0589 302.609 80 310.668 80 320.609L80 351C80 363.703 69.7025 374 57 374V374V374C44.2974 374 34 363.703 34 351L34 319.609C34 310.22 26.3888 302.609 17 302.609V302.609C7.61116 302.609 6.90658e-06 294.998 7.72738e-06 285.609L2.10689e-05 133C2.3483e-05 105.386 22.3858 83 50 83L66 83C93.6143 83 116 105.386 116 133L116 284.609Z" fill="#54B561"/>
<rect x="28" y="32" width="63" height="11" fill="#54B561"/>
<rect x="28" y="333" width="63" height="11" fill="#54B561"/>
<rect x="3" y="23" width="25" height="30" rx="5" fill="#54B561"/>
<rect x="3" y="323" width="25" height="30" rx="5" fill="#54B561"/>
<rect x="91" y="323" width="25" height="30" rx="5" fill="#54B561"/>
<rect x="91" y="23" width="25" height="30" rx="5" fill="#54B561"/>
<circle cx="58" cy="155" r="16" fill="#3B404A"/>
<circle cx="60" cy="208" r="16" fill="#3B404A"/>
<rect x="61" y="163" width="45" height="4" transform="rotate(90 61 163)" fill="#3B404A"/>
</svg>
