<svg width="28" height="18" viewBox="0 0 28 18" fill="none" xmlns="http://www.w3.org/2000/svg">
<rect x="27.9227" y="3.32983" width="19.7875" height="4.7763" rx="2.38815" transform="rotate(134.198 27.9227 3.32983)" fill="white"/>
<rect x="27.9227" y="3.32983" width="19.7875" height="4.7763" rx="2.38815" transform="rotate(134.198 27.9227 3.32983)" fill="white"/>
<rect x="27.9227" y="3.32983" width="19.7875" height="4.7763" rx="2.38815" transform="rotate(134.198 27.9227 3.32983)" fill="white"/>
<rect x="27.9227" y="3.32983" width="19.7875" height="4.7763" rx="2.38815" transform="rotate(134.198 27.9227 3.32983)" fill="white"/>
<rect x="3.48814" width="19.7875" height="4.7763" rx="2.38815" transform="rotate(46.9117 3.48814 0)" fill="white"/>
<rect x="3.48814" width="19.7875" height="4.7763" rx="2.38815" transform="rotate(46.9117 3.48814 0)" fill="white"/>
<rect x="3.48814" width="19.7875" height="4.7763" rx="2.38815" transform="rotate(46.9117 3.48814 0)" fill="white"/>
<rect x="3.48814" width="19.7875" height="4.7763" rx="2.38815" transform="rotate(46.9117 3.48814 0)" fill="white"/>
</svg>
