<svg width="18" height="28" viewBox="0 0 18 28" fill="none" xmlns="http://www.w3.org/2000/svg">
<rect x="3.32968" y="3.05176e-05" width="19.7875" height="4.7763" transform="rotate(44.1976 3.32968 3.05176e-05)" fill="white"/>
<rect x="3.32968" y="3.05176e-05" width="19.7875" height="4.7763" transform="rotate(44.1976 3.32968 3.05176e-05)" fill="white"/>
<rect x="3.32968" y="3.05176e-05" width="19.7875" height="4.7763" transform="rotate(44.1976 3.32968 3.05176e-05)" fill="white"/>
<rect x="3.32968" y="3.05176e-05" width="19.7875" height="4.7763" transform="rotate(44.1976 3.32968 3.05176e-05)" fill="#414651"/>
<rect x="9.15527e-05" y="24.4346" width="19.7875" height="4.7763" transform="rotate(-43.0883 9.15527e-05 24.4346)" fill="white"/>
<rect x="9.15527e-05" y="24.4346" width="19.7875" height="4.7763" transform="rotate(-43.0883 9.15527e-05 24.4346)" fill="white"/>
<rect x="9.15527e-05" y="24.4346" width="19.7875" height="4.7763" transform="rotate(-43.0883 9.15527e-05 24.4346)" fill="white"/>
<rect x="9.15527e-05" y="24.4346" width="19.7875" height="4.7763" transform="rotate(-43.0883 9.15527e-05 24.4346)" fill="#414651"/>
</svg>
