<svg width="164" height="283" viewBox="0 0 164 283" fill="none" xmlns="http://www.w3.org/2000/svg">
<path d="M143 138.253C143 210.275 95.9226 261.897 81.7721 283C64.9004 259.732 20 211.899 20 139.877C20 67.8547 49.1592 0 81.7721 0C114.385 0 143 66.2314 143 138.253Z" fill="#54B561"/>
<path d="M0 183.921L24.3976 162L45 222.079L35.512 231.551L25.2108 241.835L19.7892 244H15.1807L10.5723 242.917L7.31928 241.294L4.06627 237.776L2.16867 233.446L1.62651 229.386L0 183.921Z" fill="#54B561"/>
<path d="M164 184.653L139.602 163L119 222.347L128.488 231.703L138.789 241.861L144.211 244H148.819L153.428 242.931L156.681 241.327L159.934 237.851L161.831 233.574L162.373 229.564L164 184.653Z" fill="#54B561"/>
<path d="M82 251L66 229.528L66 220L98 220L98 229.528L82 251Z" fill="#3B404A"/>
<ellipse cx="81" cy="87.5" rx="16" ry="15.5" fill="#3B404A"/>
<ellipse cx="81" cy="137.5" rx="16" ry="15.5" fill="#3B404A"/>
<rect x="78" y="100" width="7" height="26" fill="#3B404A"/>
</svg>
