<svg width="369" height="373" viewBox="0 0 369 373" fill="none" xmlns="http://www.w3.org/2000/svg">
<path d="M5 58.9998C5 31.3855 27.3858 8.99976 55 8.99976H319C346.614 8.99976 369 31.3855 369 58.9998V323C369 350.614 346.614 373 319 373H55C27.3858 373 5 350.614 5 323V58.9998Z" fill="#54B561"/>
<rect x="303.643" y="267.287" width="21.7906" height="74.2959" rx="3" transform="rotate(126.59 303.643 267.287)" fill="#545B69"/>
<path d="M240.409 229.563C241.736 230.475 242.041 232.306 241.081 233.599V233.599C240.145 234.859 238.365 235.122 237.105 234.187L145.671 166.306C143.775 164.898 144.923 161.886 147.275 162.098L162.19 163.441C163.539 163.563 163.524 165.539 162.173 165.64V165.64L160.171 165.79C156.405 166.073 155.092 170.937 158.205 173.076L240.409 229.563Z" fill="#545B69"/>
<path d="M2.00002 112.309L139.612 173.47C154.887 180.259 170.853 165.436 165.216 149.7L112.309 2" stroke="#393C43" stroke-width="6"/>
<path d="M304.243 248.48C305.061 248.346 305.614 247.574 305.48 246.757L303.293 233.435C303.159 232.618 302.387 232.064 301.57 232.198C300.752 232.332 300.198 233.104 300.333 233.921L302.277 245.763L290.435 247.707C289.618 247.841 289.064 248.613 289.198 249.43C289.332 250.248 290.104 250.802 290.921 250.667L304.243 248.48ZM264.125 220.218L303.125 248.218L304.875 245.782L265.875 217.782L264.125 220.218Z" fill="white"/>
<rect x="147.358" y="241.65" width="124.088" height="20.1738" rx="10.0869" transform="rotate(-50.0327 147.358 241.65)" fill="#3B404A"/>
<circle cx="195.951" cy="201.3" r="33.9719" transform="rotate(-50.0327 195.951 201.3)" fill="#656C79"/>
<path d="M226.586 159.965L228.085 163.176C228.351 163.746 229.07 163.932 229.579 163.562L229.945 163.296C230.255 163.071 230.328 162.64 230.109 162.326L229.877 161.991C229.632 161.638 229.907 161.159 230.335 161.192C230.636 161.215 230.891 160.974 230.885 160.673L230.881 160.482C230.869 159.938 231.467 159.599 231.928 159.889L231.975 159.919C232.332 160.144 232.805 160.011 232.993 159.633L233.303 159.01C233.543 158.529 233.359 157.945 232.887 157.687L230.144 156.188C229.468 155.818 228.646 156.319 228.664 157.089L228.675 157.515C228.688 158.071 228.246 158.531 227.69 158.539L227.478 158.542C226.753 158.553 226.28 159.308 226.586 159.965Z" fill="#54B561"/>
<path d="M223.615 168.294C222.639 167.887 221.95 166.215 221.611 165.025C221.5 164.639 221.696 164.24 222.056 164.061C222.525 163.829 223.089 164.056 223.323 164.525C223.738 165.357 224.305 166.137 224.731 165.629C225.197 165.074 224.545 163.988 223.922 163.221C223.663 162.902 223.605 162.455 223.814 162.101C224.093 161.627 224.732 161.506 225.134 161.882C227.979 164.548 227.164 166.76 226.322 167.583C225.911 168.024 224.793 168.785 223.615 168.294Z" fill="#54B561"/>
<path d="M220.179 167.152L220.201 167.171C220.64 167.539 220.67 168.192 220.327 168.651C219.746 169.429 219.358 170.313 220.062 170.903C220.49 171.262 220.809 171.113 220.965 170.833C221.21 170.391 221.152 169.603 221.477 169.215C221.816 168.811 222.443 168.828 222.759 169.251L223.657 170.451C223.935 170.823 223.92 171.337 223.622 171.692L222.965 172.477C222.866 172.595 222.691 172.61 222.574 172.512C222.451 172.409 222.269 172.431 222.156 172.543C221.357 173.332 219.673 173.765 218.426 172.263C217.177 170.761 218.003 168.569 218.899 167.271C219.194 166.845 219.782 166.819 220.179 167.152Z" fill="#54B561"/>
<path d="M161.263 238.537L160.812 237.715C160.62 237.367 160.655 236.938 160.899 236.625C162.157 235.014 162.272 234.889 162.453 234.808C164.477 233.901 165.243 234.702 165.454 235.609C165.569 236.105 165.882 236.579 166.38 236.687L166.524 236.718C167.064 236.835 167.407 237.369 167.289 237.909L167.164 238.481C167.085 238.843 166.73 239.075 166.366 239L165.955 238.917C165.464 238.816 165.121 239.39 165.441 239.776C165.649 240.026 165.585 240.403 165.306 240.57L164.46 241.077C163.982 241.363 163.362 241.204 163.081 240.722L161.88 238.656C161.817 238.547 161.671 238.52 161.573 238.599C161.473 238.679 161.325 238.65 161.263 238.537Z" fill="#54B561"/>
<path d="M159.114 245.897L156.886 242.606C156.718 242.356 156.672 242.044 156.82 241.782C157.377 240.799 158.88 238.982 160.015 239.346C162.297 240.079 161.783 242.452 160.978 243.764C160.79 244.071 160.817 244.488 161.093 244.719C161.397 244.974 161.394 245.444 161.086 245.695L160.573 246.112C160.118 246.483 159.443 246.383 159.114 245.897Z" fill="#54B561"/>
<ellipse cx="168.82" cy="232.01" rx="2.99815" ry="3.49329" transform="rotate(-18.3914 168.82 232.01)" fill="#54B561"/>
<ellipse cx="168.824" cy="231.957" rx="0.844029" ry="0.98342" transform="rotate(-18.3914 168.824 231.957)" fill="#3B404A"/>
<path d="M159.689 241.307C160.19 241.404 160.162 241.918 159.932 242.403C159.74 242.808 159.211 242.76 158.954 242.393C158.744 242.095 158.703 241.609 159.002 241.401C159.148 241.299 159.356 241.243 159.689 241.307Z" fill="#3B404A"/>
<path d="M164.053 236.355C164.486 236.455 164.494 236.877 164.326 237.278C164.172 237.647 163.698 237.607 163.461 237.285C163.259 237.011 163.204 236.525 163.511 236.376C163.633 236.317 163.801 236.296 164.053 236.355Z" fill="#3B404A"/>
<path d="M198.377 191.491L197.89 191.37C197.042 191.16 196.152 191.189 195.319 191.454L195.26 191.466C195.09 191.5 194.937 191.591 194.826 191.724C194.744 191.822 194.688 191.938 194.663 192.063L194.631 192.219C194.594 192.406 194.595 192.599 194.634 192.785L194.818 193.644L195.486 195.475L195.959 196.617C196.011 196.743 196.074 196.865 196.147 196.98L196.224 197.101C196.457 197.468 196.807 197.745 197.217 197.889C197.344 197.934 197.476 197.965 197.611 197.983L200.901 198.407L201.147 198.413C201.412 198.418 201.667 198.514 201.87 198.684C202.075 198.856 202.227 199.082 202.309 199.336L202.481 199.865L202.769 201.512L203.083 203.116C203.134 203.377 203.242 203.624 203.401 203.837L203.463 203.92C203.691 204.228 204.028 204.438 204.405 204.508C204.627 204.55 204.855 204.541 205.073 204.483L205.772 204.297L206.297 204.078C206.784 203.876 207.344 203.995 207.706 204.378L208.247 205.054C208.321 205.146 208.386 205.245 208.442 205.349C208.558 205.567 208.715 205.76 208.904 205.918L209.01 206.007C209.332 206.234 209.731 206.323 210.119 206.254L210.285 206.225C210.601 206.169 210.896 206.034 211.145 205.833L211.941 205.186C212.13 205.033 212.296 204.853 212.434 204.653L212.612 204.395C212.761 204.179 212.847 203.925 212.862 203.663C212.875 203.423 212.828 203.183 212.724 202.966L212.616 202.739L211.92 201.42L210.512 199.098C210.413 198.935 210.41 198.731 210.505 198.565C210.587 198.42 210.733 198.323 210.898 198.303L211.559 198.222C211.686 198.207 211.815 198.205 211.942 198.216L213.618 198.359L215.087 198.345C215.317 198.343 215.547 198.373 215.769 198.433C216.777 198.707 217.849 198.328 218.46 197.481L218.708 197.137C218.966 196.78 219.145 196.373 219.234 195.941L219.423 195.026C219.496 194.671 219.473 194.304 219.358 193.961C219.189 193.459 218.831 193.043 218.362 192.799L218.267 192.75C217.984 192.603 217.674 192.517 217.356 192.496L216.193 192.42L213.205 192.325L209.573 192.359L208.937 192.29C208.634 192.257 208.347 192.135 208.114 191.939C207.887 191.749 207.72 191.498 207.632 191.216L205.904 185.671L204.159 176.847L203.524 173.705L202.811 171.406C202.782 171.312 202.733 171.226 202.667 171.154L202.524 170.998C202.367 170.826 202.104 170.806 201.922 170.951C201.867 170.996 201.822 171.054 201.794 171.12L201.296 172.268C201.132 172.645 201.011 173.039 200.935 173.444L200.627 175.091L200.613 175.271C200.354 178.757 200.363 182.258 200.64 185.742L201.297 189.973L201.428 191.137C201.445 191.29 201.399 191.444 201.3 191.563C201.19 191.694 201.026 191.768 200.855 191.764L200.47 191.756L199.352 191.655C199.023 191.625 198.698 191.57 198.377 191.491Z" fill="#52B563"/>
<path d="M204.816 213.167L202.569 216.228C202.5 216.321 202.42 216.406 202.331 216.481L202.242 216.555C202.099 216.674 201.926 216.752 201.742 216.78C201.528 216.813 201.31 216.777 201.118 216.678L199.812 216.003L199.058 215.595L198.445 215.216L197.807 214.783C197.67 214.689 197.555 214.566 197.473 214.422C197.361 214.227 197.312 214.003 197.331 213.78L197.348 213.591C197.378 213.245 197.515 212.916 197.738 212.65L198.023 212.31L198.537 211.696C198.676 211.531 198.759 211.326 198.775 211.111C198.792 210.875 198.728 210.64 198.592 210.446L198.471 210.273C198.39 210.156 198.293 210.051 198.184 209.959L196.85 208.841C196.582 208.617 196.244 208.494 195.894 208.495C195.723 208.495 195.554 208.525 195.393 208.583L195.085 208.695C194.39 208.947 193.631 208.962 192.926 208.739L192.879 208.724C192.69 208.664 192.507 208.588 192.331 208.497L191.629 208.135C191.441 208.037 191.278 207.898 191.154 207.726C190.959 207.455 190.87 207.122 190.906 206.79L191.055 205.431C191.097 205.041 191.197 204.661 191.35 204.3C191.559 203.809 191.864 203.365 192.247 202.993L193.785 201.503L195.006 200.047C195.385 199.595 195.945 199.331 196.536 199.328C197.013 199.325 197.475 199.491 197.841 199.798L198.05 199.973C198.261 200.15 198.444 200.357 198.593 200.587L199.218 201.551C199.539 202.048 199.903 202.516 200.304 202.95L201.617 204.373L203.207 205.706C203.437 205.898 203.74 205.98 204.035 205.93L205.138 205.645L205.692 205.545C206.15 205.462 206.622 205.5 207.061 205.655C207.528 205.82 207.941 206.112 208.253 206.497L208.473 206.77C208.679 207.024 208.808 207.332 208.845 207.657C208.891 208.056 208.796 208.459 208.577 208.796L207.988 209.7C207.834 209.937 207.658 210.159 207.464 210.364L204.816 213.167Z" fill="#52B563"/>
<path d="M182.146 220.535L183.176 221.182C183.666 221.49 183.683 222.197 183.21 222.529C183.125 222.588 183.053 222.662 182.996 222.749L182.727 223.161C182.5 223.509 182.375 223.915 182.368 224.332C182.359 224.813 182.511 225.289 182.794 225.678C183.068 226.055 183.456 226.344 183.897 226.494L184.387 226.66C184.676 226.759 184.979 226.81 185.284 226.812C185.968 226.816 186.631 226.573 187.151 226.128L188.332 225.116C188.733 224.772 189.192 224.502 189.687 224.317L189.803 224.273C190.565 223.988 191.395 223.937 192.186 224.125C192.485 224.196 192.775 224.3 193.051 224.436L194.006 224.907C194.373 225.088 194.78 225.169 195.188 225.144C195.696 225.112 196.179 224.916 196.565 224.585L196.812 224.373C197.035 224.181 197.233 223.961 197.398 223.717L198.225 222.498C198.447 222.17 198.62 221.811 198.739 221.433L198.882 220.974C198.932 220.817 198.952 220.653 198.944 220.489C198.918 219.996 198.63 219.554 198.19 219.33L197.689 219.075L196.275 218.223L195.748 217.942C195.524 217.823 195.35 217.629 195.254 217.395C195.116 217.055 195.16 216.668 195.371 216.367L196.424 214.866C196.627 214.576 196.716 214.222 196.674 213.87C196.63 213.507 196.45 213.175 196.17 212.94L193.979 211.104C193.78 210.936 193.547 210.813 193.297 210.741L193.217 210.719C192.888 210.624 192.538 210.638 192.217 210.757C192.033 210.825 191.864 210.925 191.717 211.054L190.927 211.746C190.438 212.174 190.008 212.665 189.65 213.207L188.575 214.828C188.48 214.971 188.352 215.089 188.202 215.171C187.819 215.382 187.346 215.336 187.011 215.055L185.495 213.784C185.263 213.589 185.053 213.368 184.871 213.125L183.735 211.609C183.692 211.551 183.653 211.489 183.621 211.423L183.423 211.024C183.333 210.841 183.359 210.623 183.489 210.467C183.634 210.294 183.875 210.237 184.083 210.325L185.787 211.054C186.142 211.206 186.53 211.262 186.914 211.219L187.19 211.188C187.581 211.143 187.939 210.951 188.191 210.65C188.363 210.444 188.479 210.197 188.525 209.933L188.688 209.015C189.069 206.865 188.017 204.715 186.086 203.697L185.684 203.485L182.674 201.362L181.801 200.897L180.743 200.393C180.47 200.263 180.17 200.203 179.868 200.22C179.487 200.24 179.123 200.381 178.827 200.621L178.305 201.044C177.989 201.3 177.716 201.604 177.495 201.945L177.081 202.583C176.52 203.447 176.118 204.405 175.892 205.41L175.53 207.03L175.418 208.364C175.316 209.58 175.439 210.805 175.782 211.977C175.986 212.675 176.267 213.349 176.618 213.986L176.844 214.394C177.343 215.299 177.939 216.145 178.623 216.919L179.403 217.803L181.853 220.299C181.941 220.389 182.04 220.468 182.146 220.535Z" fill="#52B563"/>
<path d="M188.449 202.149L183.012 197.933C182.568 197.588 182.28 197.081 182.212 196.523L182.203 196.446C182.171 196.186 182.198 195.922 182.281 195.674C182.403 195.307 182.642 194.991 182.962 194.774L183.163 194.637C183.434 194.453 183.738 194.324 184.059 194.259L187.427 193.567L190.789 193.293C191.212 193.258 191.636 193.333 192.021 193.51C192.558 193.758 192.989 194.19 193.234 194.729L193.642 195.627L194.217 197.071C194.314 197.313 194.363 197.572 194.363 197.833C194.362 198.312 194.192 198.776 193.885 199.143L193.701 199.362L193.14 200.031L191.687 201.36L191.353 201.758C191.139 202.014 190.87 202.22 190.567 202.36L190.542 202.371C190.351 202.459 190.147 202.518 189.939 202.545L189.917 202.548C189.637 202.584 189.352 202.56 189.082 202.477C188.853 202.407 188.639 202.296 188.449 202.149Z" fill="#52B563"/>
<circle cx="193.498" cy="206.38" r="3" transform="rotate(-50.0327 193.498 206.38)" fill="#1E1E1E"/>
<circle cx="200.344" cy="198.211" r="3" transform="rotate(-50.0327 200.344 198.211)" fill="#1E1E1E"/>
<line x1="192.665" y1="206.368" x2="200.367" y2="197.179" stroke="#1E1E1E"/>
<path d="M194.918 202.832L196.495 200.985L228.632 221.912L226 226.5L194.918 202.832Z" fill="#545B69"/>
</svg>
