<svg width="371" height="373" viewBox="0 0 371 373" fill="none" xmlns="http://www.w3.org/2000/svg">
<path d="M5 58.9998C5 31.3855 27.3858 8.99976 55 8.99976H319C346.614 8.99976 369 31.3855 369 58.9998V323C369 350.614 346.614 373 319 373H55C27.3858 373 5 350.614 5 323V58.9998Z" fill="#54B561"/>
<rect x="366.33" y="326.395" width="21.7906" height="74.2959" rx="3" transform="rotate(129.235 366.33 326.395)" fill="#656C79"/>
<path d="M312.301 291.32C313.619 292.26 313.868 294.118 312.844 295.371C311.866 296.569 310.102 296.747 308.904 295.769L260.147 255.954C258.918 254.951 259.467 252.967 261.036 252.737L272.268 251.091C273.327 250.936 273.682 252.456 272.663 252.785L270.318 253.543C267.19 254.554 266.549 258.698 269.226 260.606L312.301 291.32Z" fill="#656C79"/>
<path d="M2.00003 112.309L197.34 197.342C199.078 198.098 200.564 199.333 201.627 200.901L239.439 256.702C245.846 266.156 259.085 267.863 267.68 260.343L284.61 245.529C289.873 240.924 288.904 232.477 282.736 229.183L210.274 190.482C208.468 189.517 207.002 188.022 206.073 186.197L112.309 2" stroke="#393C43" stroke-width="6"/>
<path d="M266.332 253.69C266.152 252.999 266.594 252.3 267.295 252.166L272.453 251.174C272.955 251.078 273.439 251.406 273.536 251.908C273.624 252.368 273.354 252.822 272.908 252.964L267.902 254.556C267.227 254.77 266.511 254.375 266.332 253.69Z" fill="#656C79"/>
<rect x="147.164" y="239.375" width="144.147" height="23.435" rx="11.7175" transform="rotate(-50.0327 147.164 239.375)" fill="#3B404A"/>
<circle cx="203.613" cy="192.503" r="39.4637" transform="rotate(-50.0327 203.613 192.503)" fill="#656C79"/>
<path d="M239.095 144.26L241.024 148.393C241.289 148.963 242.009 149.149 242.518 148.78L243.102 148.355C243.461 148.094 243.546 147.593 243.293 147.228L243.023 146.84C242.738 146.429 243.057 145.872 243.555 145.911C243.905 145.938 244.201 145.658 244.193 145.308L244.189 145.086C244.175 144.454 244.87 144.061 245.405 144.398L245.459 144.432C245.874 144.693 246.424 144.539 246.642 144.1L247.072 143.237C247.312 142.756 247.128 142.172 246.656 141.914L243.087 139.963C242.411 139.594 241.589 140.095 241.607 140.865L241.63 141.803C241.643 142.359 241.201 142.819 240.645 142.827L239.986 142.837C239.261 142.848 238.788 143.602 239.095 144.26Z" fill="#54B561"/>
<path d="M235.749 154.161C234.61 153.686 233.808 151.73 233.415 150.346C233.291 149.908 233.513 149.455 233.921 149.252L233.96 149.233C234.493 148.968 235.134 149.227 235.397 149.759C235.88 150.735 236.547 151.66 237.045 151.065C237.593 150.412 236.809 149.127 236.077 148.234C235.791 147.885 235.728 147.394 235.957 147.005L236.013 146.911C236.32 146.389 237.021 146.257 237.465 146.668C240.827 149.785 239.876 152.375 238.893 153.335C238.415 153.848 237.117 154.731 235.749 154.161Z" fill="#54B561"/>
<path d="M231.643 152.739L231.913 152.966C232.352 153.334 232.385 153.989 232.033 154.441C231.303 155.375 230.762 156.472 231.621 157.192C232.119 157.609 232.489 157.436 232.67 157.111C232.955 156.597 232.888 155.681 233.265 155.231C233.658 154.762 234.387 154.782 234.754 155.273L235.874 156.77C236.152 157.141 236.137 157.655 235.839 158.011L234.993 159.021C234.879 159.157 234.675 159.175 234.539 159.061C234.397 158.942 234.185 158.967 234.053 159.098C233.126 160.014 231.17 160.516 229.72 158.772C228.231 156.98 229.283 154.342 230.355 152.853C230.658 152.432 231.246 152.407 231.643 152.739Z" fill="#54B561"/>
<path d="M163.317 235.76L162.743 234.716C162.551 234.365 162.587 233.933 162.832 233.618C164.352 231.671 164.485 231.523 164.699 231.428C167.156 230.327 168.016 231.391 168.214 232.5C168.304 233.001 168.622 233.472 169.12 233.58L169.586 233.681C170.127 233.798 170.47 234.331 170.352 234.872L170.172 235.694C170.08 236.115 169.667 236.384 169.245 236.298L168.767 236.2C168.197 236.084 167.798 236.75 168.17 237.198C168.412 237.489 168.337 237.927 168.013 238.121L166.89 238.794C166.412 239.08 165.792 238.921 165.512 238.439L164.034 235.898C163.96 235.771 163.791 235.74 163.677 235.831C163.561 235.924 163.389 235.89 163.317 235.76Z" fill="#54B561"/>
<path d="M160.919 244.456L158.19 240.422C158.021 240.173 157.974 239.861 158.118 239.597C158.733 238.473 160.522 236.267 161.867 236.699C164.518 237.55 163.921 240.307 162.986 241.831C162.767 242.188 162.798 242.672 163.119 242.941C163.473 243.237 163.469 243.783 163.111 244.074L162.379 244.671C161.923 245.041 161.248 244.942 160.919 244.456Z" fill="#54B561"/>
<ellipse cx="172.095" cy="228.177" rx="3.48282" ry="4.05801" transform="rotate(-18.3914 172.095 228.177)" fill="#54B561"/>
<ellipse cx="172.1" cy="228.115" rx="0.980472" ry="1.1424" transform="rotate(-18.3914 172.1 228.115)" fill="#3B404A"/>
<path d="M161.488 238.977C162.071 239.09 162.038 239.687 161.771 240.25C161.547 240.72 160.933 240.665 160.634 240.239C160.391 239.893 160.343 239.328 160.69 239.087C160.861 238.968 161.102 238.903 161.488 238.977Z" fill="#3B404A"/>
<path d="M166.558 233.224C167.061 233.341 167.071 233.831 166.875 234.296C166.696 234.725 166.146 234.679 165.87 234.305C165.636 233.987 165.572 233.422 165.928 233.249C166.07 233.181 166.265 233.156 166.558 233.224Z" fill="#3B404A"/>
<path d="M206.431 181.108L205.865 180.968C204.879 180.724 203.846 180.758 202.879 181.065L202.809 181.079C202.612 181.119 202.435 181.225 202.306 181.379C202.211 181.492 202.145 181.628 202.116 181.773L202.079 181.954C202.036 182.171 202.037 182.395 202.083 182.611L202.297 183.609L203.072 185.736L203.621 187.063C203.682 187.21 203.755 187.351 203.84 187.484L203.93 187.625C204.201 188.051 204.607 188.373 205.083 188.54C205.231 188.592 205.384 188.629 205.54 188.649L209.362 189.142L209.649 189.148C209.956 189.155 210.252 189.266 210.488 189.464C210.726 189.663 210.903 189.926 210.999 190.221L211.198 190.836L211.532 192.749L211.897 194.613C211.956 194.916 212.083 195.202 212.267 195.45L212.338 195.547C212.604 195.904 212.995 196.148 213.433 196.23C213.691 196.278 213.956 196.268 214.209 196.2L215.021 195.984L215.631 195.73C216.196 195.495 216.848 195.633 217.267 196.079L217.896 196.863C217.982 196.971 218.057 197.085 218.122 197.207C218.258 197.459 218.44 197.683 218.659 197.867L218.782 197.97C219.156 198.234 219.62 198.338 220.071 198.258L220.264 198.224C220.63 198.159 220.974 198.003 221.263 197.768L222.188 197.017C222.407 196.839 222.6 196.631 222.76 196.398L222.967 196.098C223.14 195.847 223.24 195.552 223.257 195.247C223.273 194.968 223.218 194.69 223.097 194.438L222.971 194.174L222.163 192.642L220.527 189.945C220.412 189.755 220.409 189.518 220.519 189.325C220.614 189.158 220.784 189.045 220.975 189.022L221.744 188.928C221.892 188.91 222.041 188.907 222.189 188.92L224.135 189.086L225.842 189.07C226.109 189.068 226.376 189.102 226.634 189.172C227.805 189.491 229.05 189.05 229.76 188.067L230.048 187.667C230.348 187.252 230.556 186.779 230.659 186.278L230.878 185.214C230.963 184.802 230.937 184.375 230.803 183.977C230.607 183.394 230.192 182.91 229.646 182.627L229.536 182.571C229.208 182.4 228.847 182.3 228.478 182.276L227.127 182.188L223.655 182.076L219.436 182.116L218.698 182.036C218.346 181.998 218.013 181.856 217.741 181.628C217.478 181.408 217.284 181.116 217.182 180.789L215.175 174.347L213.147 164.097L212.409 160.446L211.582 157.776C211.548 157.667 211.491 157.567 211.414 157.483L211.248 157.302C211.066 157.102 210.76 157.079 210.549 157.248C210.484 157.3 210.433 157.367 210.4 157.444L209.821 158.777C209.631 159.215 209.491 159.674 209.403 160.143L209.044 162.057L209.028 162.279C208.727 166.32 208.738 170.391 209.06 174.43L209.823 179.345L209.975 180.697C209.995 180.875 209.941 181.054 209.826 181.191C209.698 181.344 209.508 181.43 209.309 181.426L208.862 181.416L207.563 181.298C207.181 181.263 206.803 181.2 206.431 181.108Z" fill="#52B563"/>
<path d="M213.911 206.288L211.3 209.843C211.22 209.952 211.127 210.051 211.024 210.137L210.92 210.223C210.754 210.362 210.553 210.452 210.339 210.485C210.091 210.523 209.838 210.482 209.615 210.366L208.098 209.582L207.222 209.109L206.51 208.668L205.769 208.165C205.609 208.056 205.476 207.913 205.38 207.745C205.25 207.519 205.193 207.259 205.216 207L205.235 206.781C205.271 206.379 205.429 205.997 205.688 205.687L206.019 205.292L206.617 204.579C206.778 204.387 206.874 204.149 206.893 203.899C206.913 203.625 206.838 203.352 206.681 203.127L206.54 202.926C206.446 202.791 206.333 202.668 206.207 202.562L204.657 201.263C204.346 201.002 203.953 200.86 203.547 200.861C203.348 200.861 203.151 200.896 202.964 200.963L202.607 201.093C201.799 201.386 200.918 201.403 200.099 201.144L200.044 201.127C199.825 201.057 199.611 200.969 199.407 200.863L198.591 200.442C198.373 200.329 198.184 200.167 198.04 199.967C197.813 199.653 197.71 199.265 197.752 198.88L197.925 197.301C197.974 196.849 198.089 196.407 198.267 195.988C198.51 195.417 198.864 194.901 199.31 194.47L201.097 192.739L202.514 191.048C202.955 190.521 203.605 190.216 204.292 190.211C204.846 190.208 205.383 190.401 205.808 190.757L206.051 190.961C206.296 191.166 206.508 191.407 206.682 191.674L207.407 192.795C207.781 193.371 208.203 193.915 208.669 194.419L210.195 196.073L212.042 197.621C212.309 197.844 212.66 197.939 213.003 197.881L214.285 197.55L214.928 197.434C215.46 197.338 216.008 197.382 216.518 197.562C217.061 197.754 217.541 198.092 217.903 198.54L218.159 198.856C218.398 199.152 218.548 199.509 218.591 199.887C218.645 200.351 218.535 200.819 218.28 201.21L217.595 202.26C217.416 202.535 217.212 202.794 216.987 203.032L213.911 206.288Z" fill="#52B563"/>
<path d="M187.576 214.847L188.772 215.599C189.341 215.956 189.362 216.778 188.811 217.163C188.713 217.232 188.629 217.319 188.563 217.419L188.251 217.897C187.987 218.302 187.842 218.774 187.833 219.258C187.823 219.816 188 220.369 188.328 220.821C188.647 221.26 189.097 221.595 189.61 221.769L190.179 221.963C190.515 222.077 190.866 222.136 191.221 222.138C192.016 222.144 192.786 221.862 193.389 221.344L194.762 220.169C195.228 219.769 195.761 219.455 196.336 219.24L196.471 219.19C197.356 218.859 198.32 218.799 199.239 219.017C199.586 219.1 199.923 219.221 200.243 219.379L201.353 219.926C201.779 220.136 202.253 220.231 202.727 220.201C203.316 220.164 203.877 219.936 204.325 219.552L204.612 219.306C204.872 219.083 205.101 218.827 205.294 218.543L206.254 217.128C206.512 216.747 206.713 216.33 206.851 215.891L207.018 215.358C207.075 215.175 207.099 214.984 207.089 214.794C207.059 214.221 206.725 213.708 206.214 213.448L205.632 213.152L203.989 212.162L203.376 211.835C203.117 211.697 202.914 211.472 202.803 211.199C202.643 210.804 202.694 210.354 202.939 210.005L204.161 208.262C204.398 207.925 204.501 207.513 204.452 207.105C204.402 206.684 204.193 206.297 203.867 206.025L201.322 203.891C201.09 203.697 200.82 203.553 200.529 203.47L200.437 203.444C200.055 203.334 199.648 203.35 199.275 203.488C199.062 203.567 198.865 203.684 198.694 203.834L197.776 204.637C197.208 205.134 196.709 205.705 196.292 206.334L195.044 208.218C194.934 208.384 194.785 208.52 194.611 208.616C194.166 208.861 193.617 208.807 193.228 208.481L191.466 207.005C191.196 206.778 190.953 206.522 190.742 206.24L189.422 204.478C189.371 204.411 189.327 204.338 189.289 204.263L189.059 203.798C188.954 203.587 188.984 203.333 189.136 203.152C189.305 202.951 189.585 202.884 189.826 202.987L191.805 203.833C192.217 204.01 192.669 204.076 193.114 204.025L193.436 203.989C193.889 203.937 194.305 203.714 194.598 203.364C194.798 203.125 194.932 202.838 194.986 202.532L195.175 201.464C195.618 198.967 194.396 196.47 192.152 195.287L191.685 195.041L188.189 192.575L187.175 192.034L185.946 191.449C185.629 191.298 185.28 191.229 184.929 191.248C184.487 191.272 184.064 191.435 183.72 191.714L183.114 192.205C182.747 192.503 182.43 192.856 182.172 193.252L181.692 193.993C181.041 194.997 180.573 196.109 180.311 197.278L179.89 199.159L179.76 200.708C179.642 202.122 179.785 203.544 180.183 204.906C180.42 205.717 180.746 206.5 181.155 207.24L181.416 207.714C181.996 208.764 182.689 209.748 183.483 210.647L184.389 211.673L187.235 214.573C187.338 214.677 187.452 214.769 187.576 214.847Z" fill="#52B563"/>
<path d="M194.898 193.489L188.582 188.591C188.066 188.191 187.731 187.601 187.652 186.953L187.642 186.864C187.605 186.562 187.636 186.255 187.732 185.967C187.874 185.541 188.153 185.174 188.524 184.921L188.757 184.763C189.072 184.549 189.426 184.4 189.798 184.323L193.71 183.52L197.616 183.201C198.107 183.161 198.6 183.248 199.047 183.454C199.671 183.741 200.171 184.244 200.456 184.869L200.93 185.912L201.598 187.59C201.711 187.871 201.768 188.172 201.767 188.475C201.766 189.032 201.569 189.571 201.212 189.997L200.999 190.252L200.347 191.029L198.659 192.572L198.271 193.035C198.022 193.333 197.71 193.571 197.358 193.734L197.329 193.747C197.107 193.849 196.871 193.917 196.628 193.949L196.603 193.952C196.277 193.994 195.947 193.966 195.633 193.87C195.367 193.789 195.118 193.659 194.898 193.489Z" fill="#52B563"/>
<circle cx="199.902" cy="198.48" r="2.8741" transform="rotate(-50.0327 199.902 198.48)" fill="#1E1E1E"/>
<circle cx="207.855" cy="188.991" r="2.8741" transform="rotate(-50.0327 207.855 188.991)" fill="#1E1E1E"/>
<line x1="199.858" y1="198.442" x2="208.805" y2="187.767" stroke="#1E1E1E"/>
<path d="M205.532 187.145C206.382 186.075 207.877 185.769 209.08 186.419L247.575 207.218C250.069 208.565 249.381 212.316 246.571 212.691C245.955 212.773 245.328 212.657 244.782 212.358L206.386 191.376C204.85 190.536 204.442 188.515 205.532 187.145Z" fill="#393C43"/>
<path d="M202.057 196.583L224.5 229.499L220.5 233.998L197.5 199.999L197.306 199.612C196.808 198.614 196.882 197.427 197.5 196.499L199 195.499L200 195.499L201.29 195.929L202.057 196.583Z" fill="#393C43"/>
</svg>
