<svg width="364" height="368" viewBox="0 0 364 368" fill="none" xmlns="http://www.w3.org/2000/svg">
<path d="M0 54C0 26.3858 22.3858 4 50 4H314C341.614 4 364 26.3858 364 54V318C364 345.614 341.614 368 314 368H50C22.3858 368 0 345.614 0 318V54Z" fill="#54B561"/>
<rect x="335.019" y="206.34" width="21.7906" height="74.2959" rx="3" transform="rotate(70.4091 335.019 206.34)" fill="#656C79"/>
<path d="M285.911 230.904C287.397 230.263 289.115 231.011 289.658 232.536V232.536C290.177 233.993 289.416 235.594 287.959 236.113L228.654 257.22C227.16 257.752 225.746 256.255 226.362 254.794L230.769 244.331C231.184 243.345 232.668 243.829 232.422 244.87V244.87L231.857 247.269C231.103 250.469 234.316 253.162 237.335 251.86L285.911 230.904Z" fill="#656C79"/>
<path d="M114 2.00003L168.059 142.554C174.06 158.155 195.83 158.964 202.972 143.851L270 2" stroke="#393C43" stroke-width="6"/>
<rect x="34" y="295" width="92" height="29" rx="14.5" fill="white"/>
<path d="M57.12 305.2V315H58.31V305.2H57.12ZM60.06 315C61.012 315 61.8567 314.795 62.594 314.384C63.3313 313.973 63.91 313.404 64.33 312.676C64.75 311.939 64.96 311.08 64.96 310.1C64.96 309.12 64.75 308.266 64.33 307.538C63.91 306.801 63.3313 306.227 62.594 305.816C61.8567 305.405 61.012 305.2 60.06 305.2H57.778V306.39H60.06C60.6107 306.39 61.1147 306.479 61.572 306.656C62.0293 306.824 62.4213 307.071 62.748 307.398C63.0747 307.715 63.3267 308.103 63.504 308.56C63.6813 309.017 63.77 309.531 63.77 310.1C63.77 310.669 63.6813 311.183 63.504 311.64C63.3267 312.097 63.0747 312.489 62.748 312.816C62.4213 313.133 62.0293 313.381 61.572 313.558C61.1147 313.726 60.6107 313.81 60.06 313.81H57.778V315H60.06ZM66.0056 311.78C66.0056 312.424 66.1503 313.003 66.4396 313.516C66.7383 314.02 67.1396 314.417 67.6436 314.706C68.1476 314.995 68.7123 315.14 69.3376 315.14C69.9723 315.14 70.537 314.995 71.0316 314.706C71.5356 314.417 71.9323 314.02 72.2216 313.516C72.5203 313.003 72.6696 312.424 72.6696 311.78C72.6696 311.127 72.5203 310.548 72.2216 310.044C71.9323 309.54 71.5356 309.143 71.0316 308.854C70.537 308.565 69.9723 308.42 69.3376 308.42C68.7123 308.42 68.1476 308.565 67.6436 308.854C67.1396 309.143 66.7383 309.54 66.4396 310.044C66.1503 310.548 66.0056 311.127 66.0056 311.78ZM67.1396 311.78C67.1396 311.332 67.233 310.935 67.4196 310.59C67.6156 310.235 67.877 309.96 68.2036 309.764C68.5396 309.568 68.9176 309.47 69.3376 309.47C69.7576 309.47 70.131 309.568 70.4576 309.764C70.7936 309.96 71.055 310.235 71.2416 310.59C71.4376 310.935 71.5356 311.332 71.5356 311.78C71.5356 312.228 71.4376 312.625 71.2416 312.97C71.055 313.315 70.7936 313.591 70.4576 313.796C70.131 313.992 69.7576 314.09 69.3376 314.09C68.9176 314.09 68.5396 313.992 68.2036 313.796C67.877 313.591 67.6156 313.315 67.4196 312.97C67.233 312.625 67.1396 312.228 67.1396 311.78ZM79.0382 304.08V315H80.1582V304.08H79.0382ZM73.6482 311.78C73.6482 312.471 73.7929 313.068 74.0822 313.572C74.3715 314.076 74.7589 314.463 75.2442 314.734C75.7295 315.005 76.2615 315.14 76.8402 315.14C77.3815 315.14 77.8529 315.005 78.2542 314.734C78.6555 314.463 78.9682 314.076 79.1922 313.572C79.4255 313.068 79.5422 312.471 79.5422 311.78C79.5422 311.08 79.4255 310.483 79.1922 309.988C78.9682 309.484 78.6555 309.097 78.2542 308.826C77.8529 308.555 77.3815 308.42 76.8402 308.42C76.2615 308.42 75.7295 308.555 75.2442 308.826C74.7589 309.097 74.3715 309.484 74.0822 309.988C73.7929 310.483 73.6482 311.08 73.6482 311.78ZM74.7822 311.78C74.7822 311.285 74.8802 310.865 75.0762 310.52C75.2815 310.175 75.5522 309.913 75.8882 309.736C76.2242 309.559 76.5882 309.47 76.9802 309.47C77.3069 309.47 77.6289 309.559 77.9462 309.736C78.2635 309.913 78.5249 310.175 78.7302 310.52C78.9355 310.865 79.0382 311.285 79.0382 311.78C79.0382 312.275 78.9355 312.695 78.7302 313.04C78.5249 313.385 78.2635 313.647 77.9462 313.824C77.6289 314.001 77.3069 314.09 76.9802 314.09C76.5882 314.09 76.2242 314.001 75.8882 313.824C75.5522 313.647 75.2815 313.385 75.0762 313.04C74.8802 312.695 74.7822 312.275 74.7822 311.78ZM82.6966 313.012C82.6966 312.779 82.7526 312.578 82.8646 312.41C82.9766 312.242 83.1446 312.111 83.3686 312.018C83.6019 311.925 83.9006 311.878 84.2646 311.878C84.6566 311.878 85.0252 311.929 85.3706 312.032C85.7159 312.125 86.0519 312.284 86.3786 312.508V311.85C86.3132 311.766 86.1872 311.659 86.0006 311.528C85.8139 311.388 85.5619 311.267 85.2446 311.164C84.9366 311.052 84.5492 310.996 84.0826 310.996C83.2892 310.996 82.6686 311.187 82.2206 311.57C81.7819 311.943 81.5626 312.443 81.5626 313.068C81.5626 313.507 81.6652 313.88 81.8706 314.188C82.0759 314.496 82.3466 314.734 82.6826 314.902C83.0279 315.061 83.3966 315.14 83.7886 315.14C84.1432 315.14 84.4979 315.075 84.8526 314.944C85.2166 314.813 85.5199 314.613 85.7626 314.342C86.0146 314.071 86.1406 313.731 86.1406 313.32L85.9166 312.48C85.9166 312.816 85.8326 313.115 85.6646 313.376C85.5059 313.628 85.2866 313.824 85.0066 313.964C84.7359 314.104 84.4279 314.174 84.0826 314.174C83.8119 314.174 83.5692 314.132 83.3546 314.048C83.1492 313.955 82.9859 313.819 82.8646 313.642C82.7526 313.465 82.6966 313.255 82.6966 313.012ZM82.5286 310.044C82.6312 309.969 82.7712 309.881 82.9486 309.778C83.1259 309.675 83.3406 309.587 83.5926 309.512C83.8539 309.437 84.1432 309.4 84.4606 309.4C84.6566 309.4 84.8432 309.419 85.0206 309.456C85.1979 309.493 85.3519 309.554 85.4826 309.638C85.6226 309.722 85.7299 309.839 85.8046 309.988C85.8792 310.128 85.9166 310.31 85.9166 310.534V315H87.0366V310.38C87.0366 309.96 86.9292 309.605 86.7146 309.316C86.5092 309.027 86.2152 308.807 85.8326 308.658C85.4592 308.499 85.0206 308.42 84.5166 308.42C83.9192 308.42 83.4059 308.509 82.9766 308.686C82.5566 308.863 82.2252 309.041 81.9826 309.218L82.5286 310.044ZM87.9528 308.56V309.61H91.1728V308.56H87.9528ZM89.0028 306.32V315H90.1228V306.32H89.0028ZM92.2261 304.08V315H93.3461V304.08H92.2261ZM95.7261 308.56L92.9261 311.22L96.0061 315H97.4061L94.3261 311.22L97.1261 308.56H95.7261ZM98.4621 305.9C98.4621 306.105 98.5368 306.287 98.6861 306.446C98.8448 306.595 99.0268 306.67 99.2321 306.67C99.4468 306.67 99.6288 306.595 99.7781 306.446C99.9274 306.287 100.002 306.105 100.002 305.9C100.002 305.685 99.9274 305.503 99.7781 305.354C99.6288 305.205 99.4468 305.13 99.2321 305.13C99.0268 305.13 98.8448 305.205 98.6861 305.354C98.5368 305.503 98.4621 305.685 98.4621 305.9ZM98.6721 308.56V315H99.7921V308.56H98.6721Z" fill="#54B561"/>
<rect x="136" y="295" width="92" height="29" rx="14.5" fill="white"/>
<path d="M152.484 311.032L151.532 311.676C151.747 312.105 152.022 312.511 152.358 312.894C152.703 313.267 153.1 313.571 153.548 313.804C154.005 314.028 154.5 314.14 155.032 314.14C155.424 314.14 155.797 314.075 156.152 313.944C156.516 313.813 156.838 313.627 157.118 313.384C157.407 313.141 157.631 312.847 157.79 312.502C157.958 312.157 158.042 311.769 158.042 311.34C158.042 310.892 157.963 310.509 157.804 310.192C157.645 309.865 157.44 309.59 157.188 309.366C156.945 309.133 156.679 308.941 156.39 308.792C156.101 308.643 155.825 308.521 155.564 308.428C154.995 308.232 154.542 308.036 154.206 307.84C153.879 307.635 153.646 307.42 153.506 307.196C153.366 306.963 153.296 306.711 153.296 306.44C153.296 306.123 153.417 305.838 153.66 305.586C153.903 305.325 154.29 305.194 154.822 305.194C155.205 305.194 155.527 305.269 155.788 305.418C156.059 305.567 156.287 305.759 156.474 305.992C156.661 306.225 156.815 306.463 156.936 306.706L157.958 306.118C157.799 305.773 157.58 305.446 157.3 305.138C157.02 304.821 156.679 304.564 156.278 304.368C155.886 304.163 155.424 304.06 154.892 304.06C154.341 304.06 153.851 304.172 153.422 304.396C152.993 304.611 152.657 304.909 152.414 305.292C152.171 305.675 152.05 306.109 152.05 306.594C152.05 307.042 152.134 307.42 152.302 307.728C152.479 308.036 152.703 308.297 152.974 308.512C153.245 308.717 153.529 308.89 153.828 309.03C154.127 309.161 154.397 309.268 154.64 309.352C155.013 309.483 155.363 309.632 155.69 309.8C156.026 309.959 156.297 310.169 156.502 310.43C156.707 310.691 156.81 311.041 156.81 311.48C156.81 311.928 156.651 312.297 156.334 312.586C156.017 312.875 155.597 313.02 155.074 313.02C154.682 313.02 154.332 312.936 154.024 312.768C153.716 312.6 153.436 312.367 153.184 312.068C152.941 311.769 152.708 311.424 152.484 311.032ZM162.87 308.61L158.88 314H164.62V312.95H160.91L164.9 307.56H159.3V308.61H162.87ZM170.289 310.08V314H171.409V309.94C171.409 309.165 171.209 308.554 170.807 308.106C170.415 307.649 169.879 307.42 169.197 307.42C168.777 307.42 168.404 307.513 168.077 307.7C167.76 307.887 167.494 308.176 167.279 308.568V307.56H166.159V314H167.279V310.08C167.279 309.763 167.345 309.483 167.475 309.24C167.615 308.997 167.807 308.811 168.049 308.68C168.301 308.54 168.591 308.47 168.917 308.47C169.365 308.47 169.706 308.605 169.939 308.876C170.173 309.147 170.289 309.548 170.289 310.08ZM174.635 311.48V307.56H173.515V311.62C173.515 312.385 173.716 312.997 174.117 313.454C174.518 313.911 175.055 314.14 175.727 314.14C176.156 314.14 176.53 314.047 176.847 313.86C177.164 313.664 177.43 313.375 177.645 312.992V314H178.765V307.56H177.645V311.48C177.645 311.797 177.575 312.077 177.435 312.32C177.304 312.563 177.113 312.754 176.861 312.894C176.618 313.025 176.334 313.09 176.007 313.09C175.559 313.09 175.218 312.95 174.985 312.67C174.752 312.39 174.635 311.993 174.635 311.48ZM181.99 307.56H180.87V314H181.99V307.56ZM183.936 308.792L184.552 307.868C184.384 307.691 184.198 307.574 183.992 307.518C183.796 307.453 183.582 307.42 183.348 307.42C183.05 307.42 182.756 307.537 182.466 307.77C182.177 308.003 181.939 308.321 181.752 308.722C181.575 309.114 181.486 309.567 181.486 310.08H181.99C181.99 309.772 182.018 309.497 182.074 309.254C182.14 309.011 182.252 308.82 182.41 308.68C182.569 308.54 182.788 308.47 183.068 308.47C183.255 308.47 183.409 308.498 183.53 308.554C183.652 308.601 183.787 308.68 183.936 308.792ZM184.904 310.78C184.904 311.424 185.049 312.003 185.338 312.516C185.637 313.02 186.038 313.417 186.542 313.706C187.046 313.995 187.611 314.14 188.236 314.14C188.871 314.14 189.435 313.995 189.93 313.706C190.434 313.417 190.831 313.02 191.12 312.516C191.419 312.003 191.568 311.424 191.568 310.78C191.568 310.127 191.419 309.548 191.12 309.044C190.831 308.54 190.434 308.143 189.93 307.854C189.435 307.565 188.871 307.42 188.236 307.42C187.611 307.42 187.046 307.565 186.542 307.854C186.038 308.143 185.637 308.54 185.338 309.044C185.049 309.548 184.904 310.127 184.904 310.78ZM186.038 310.78C186.038 310.332 186.131 309.935 186.318 309.59C186.514 309.235 186.775 308.96 187.102 308.764C187.438 308.568 187.816 308.47 188.236 308.47C188.656 308.47 189.029 308.568 189.356 308.764C189.692 308.96 189.953 309.235 190.14 309.59C190.336 309.935 190.434 310.332 190.434 310.78C190.434 311.228 190.336 311.625 190.14 311.97C189.953 312.315 189.692 312.591 189.356 312.796C189.029 312.992 188.656 313.09 188.236 313.09C187.816 313.09 187.438 312.992 187.102 312.796C186.775 312.591 186.514 312.315 186.318 311.97C186.131 311.625 186.038 311.228 186.038 310.78ZM190.476 304.2L189.426 303.64L187.326 305.88L187.956 306.3L190.476 304.2ZM191.922 307.56L194.722 314.49L196.556 309.8L198.502 314.49L201.302 307.56H200.042L198.418 311.774L196.542 307.07L194.792 311.746L193.182 307.56H191.922ZM202.347 303.08V314H203.467V303.08H202.347ZM205.847 307.56L203.047 310.22L206.127 314H207.527L204.447 310.22L207.247 307.56H205.847ZM209.087 312.012C209.087 311.779 209.143 311.578 209.255 311.41C209.367 311.242 209.535 311.111 209.759 311.018C209.993 310.925 210.291 310.878 210.655 310.878C211.047 310.878 211.416 310.929 211.761 311.032C212.107 311.125 212.443 311.284 212.769 311.508V310.85C212.704 310.766 212.578 310.659 212.391 310.528C212.205 310.388 211.953 310.267 211.635 310.164C211.327 310.052 210.94 309.996 210.473 309.996C209.68 309.996 209.059 310.187 208.611 310.57C208.173 310.943 207.953 311.443 207.953 312.068C207.953 312.507 208.056 312.88 208.261 313.188C208.467 313.496 208.737 313.734 209.073 313.902C209.419 314.061 209.787 314.14 210.179 314.14C210.534 314.14 210.889 314.075 211.243 313.944C211.607 313.813 211.911 313.613 212.153 313.342C212.405 313.071 212.531 312.731 212.531 312.32L212.307 311.48C212.307 311.816 212.223 312.115 212.055 312.376C211.897 312.628 211.677 312.824 211.397 312.964C211.127 313.104 210.819 313.174 210.473 313.174C210.203 313.174 209.96 313.132 209.745 313.048C209.54 312.955 209.377 312.819 209.255 312.642C209.143 312.465 209.087 312.255 209.087 312.012ZM208.919 309.044C209.022 308.969 209.162 308.881 209.339 308.778C209.517 308.675 209.731 308.587 209.983 308.512C210.245 308.437 210.534 308.4 210.851 308.4C211.047 308.4 211.234 308.419 211.411 308.456C211.589 308.493 211.743 308.554 211.873 308.638C212.013 308.722 212.121 308.839 212.195 308.988C212.27 309.128 212.307 309.31 212.307 309.534V314H213.427V309.38C213.427 308.96 213.32 308.605 213.105 308.316C212.9 308.027 212.606 307.807 212.223 307.658C211.85 307.499 211.411 307.42 210.907 307.42C210.31 307.42 209.797 307.509 209.367 307.686C208.947 307.863 208.616 308.041 208.373 308.218L208.919 309.044Z" fill="#54B561"/>
<rect x="238" y="295" width="92" height="29" rx="14.5" fill="white"/>
<path d="M275.778 309.24H282.498V308.12H275.778V309.24ZM281.7 304.2V314H282.89V304.2H281.7ZM275.12 304.2V314H276.31V304.2H275.12ZM285.562 312.012C285.562 311.779 285.618 311.578 285.73 311.41C285.842 311.242 286.01 311.111 286.234 311.018C286.467 310.925 286.766 310.878 287.13 310.878C287.522 310.878 287.89 310.929 288.236 311.032C288.581 311.125 288.917 311.284 289.244 311.508V310.85C289.178 310.766 289.052 310.659 288.866 310.528C288.679 310.388 288.427 310.267 288.11 310.164C287.802 310.052 287.414 309.996 286.948 309.996C286.154 309.996 285.534 310.187 285.086 310.57C284.647 310.943 284.428 311.443 284.428 312.068C284.428 312.507 284.53 312.88 284.736 313.188C284.941 313.496 285.212 313.734 285.548 313.902C285.893 314.061 286.262 314.14 286.654 314.14C287.008 314.14 287.363 314.075 287.718 313.944C288.082 313.813 288.385 313.613 288.628 313.342C288.88 313.071 289.006 312.731 289.006 312.32L288.782 311.48C288.782 311.816 288.698 312.115 288.53 312.376C288.371 312.628 288.152 312.824 287.872 312.964C287.601 313.104 287.293 313.174 286.948 313.174C286.677 313.174 286.434 313.132 286.22 313.048C286.014 312.955 285.851 312.819 285.73 312.642C285.618 312.465 285.562 312.255 285.562 312.012ZM285.394 309.044C285.496 308.969 285.636 308.881 285.814 308.778C285.991 308.675 286.206 308.587 286.458 308.512C286.719 308.437 287.008 308.4 287.326 308.4C287.522 308.4 287.708 308.419 287.886 308.456C288.063 308.493 288.217 308.554 288.348 308.638C288.488 308.722 288.595 308.839 288.67 308.988C288.744 309.128 288.782 309.31 288.782 309.534V314H289.902V309.38C289.902 308.96 289.794 308.605 289.58 308.316C289.374 308.027 289.08 307.807 288.698 307.658C288.324 307.499 287.886 307.42 287.382 307.42C286.784 307.42 286.271 307.509 285.842 307.686C285.422 307.863 285.09 308.041 284.848 308.218L285.394 309.044ZM291.728 303.08V314H292.848V303.08H291.728ZM295.228 307.56L292.428 310.22L295.508 314H296.908L293.828 310.22L296.628 307.56H295.228Z" fill="#54B561"/>
<line x1="103" y1="300.03" x2="102" y2="234.03" stroke="white" stroke-width="4"/>
<path d="M186 299L186 157.5" stroke="white" stroke-width="4"/>
<line x1="289" y1="300" x2="289" y2="246" stroke="white" stroke-width="4"/>
<path d="M153.49 204.947L151.922 208.308C151.656 208.878 151.976 209.549 152.586 209.701L153.068 209.821C153.448 209.917 153.836 209.69 153.939 209.311L154.049 208.908C154.165 208.482 154.723 208.382 154.98 208.741C155.16 208.993 155.517 209.035 155.75 208.831L155.898 208.702C156.318 208.334 156.978 208.582 157.054 209.135L157.062 209.191C157.12 209.62 157.536 209.905 157.957 209.804L158.676 209.632C159.199 209.506 159.529 208.99 159.424 208.463L158.78 205.247C158.629 204.492 157.717 204.184 157.139 204.693L156.757 205.029C156.339 205.396 155.703 205.353 155.339 204.932L155.153 204.717C154.679 204.168 153.797 204.29 153.49 204.947Z" fill="#54B561"/>
<path d="M144.964 208.137C144.64 207.101 145.502 205.458 146.214 204.406C146.445 204.065 146.888 203.956 147.265 204.121C147.757 204.336 147.95 204.93 147.736 205.423C147.354 206.298 147.116 207.258 147.796 207.258C148.539 207.258 148.964 206.03 149.156 205.035C149.236 204.621 149.55 204.281 149.966 204.211C150.523 204.118 151.039 204.542 151.008 205.106C150.787 209.101 148.509 209.918 147.308 209.798C146.689 209.765 145.355 209.387 144.964 208.137Z" fill="#54B561"/>
<path d="M143.597 204.658V204.74C143.597 205.313 143.116 205.756 142.543 205.786C141.539 205.838 140.57 206.112 140.57 207.063C140.57 207.637 140.897 207.789 141.22 207.727C141.729 207.628 142.311 207.063 142.83 207.063C143.371 207.063 143.771 207.568 143.647 208.095L143.29 209.613C143.184 210.064 142.781 210.383 142.317 210.383H141.245C141.088 210.383 140.96 210.256 140.96 210.099C140.96 209.935 140.823 209.806 140.66 209.791C139.513 209.683 138.063 208.644 138.421 206.673C138.781 204.691 141.07 203.897 142.684 203.752C143.2 203.706 143.597 204.14 143.597 204.658Z" fill="#54B561"/>
<path d="M110.083 203.579L109.857 203.116C109.462 202.31 108.853 201.63 108.096 201.149L108.047 201.11C107.908 201 107.736 200.939 107.559 200.939C107.428 200.939 107.299 200.972 107.184 201.034L107.041 201.112C106.869 201.206 106.718 201.334 106.598 201.488L106.043 202.199L105.043 203.93L104.456 205.056C104.392 205.18 104.338 205.309 104.296 205.443L104.251 205.583C104.117 206.008 104.129 206.466 104.286 206.883C104.334 207.013 104.397 207.138 104.472 207.255L106.307 210.123L106.465 210.32C106.635 210.532 106.728 210.795 106.728 211.067C106.728 211.341 106.65 211.61 106.505 211.843L106.201 212.327L105.096 213.638L104.041 214.943C103.869 215.155 103.747 215.403 103.684 215.669L103.659 215.772C103.568 216.155 103.624 216.558 103.818 216.9C103.932 217.102 104.089 217.276 104.278 217.409L104.885 217.837L105.404 218.105C105.884 218.354 106.159 218.874 106.096 219.411L105.921 220.281C105.897 220.4 105.863 220.517 105.818 220.63C105.723 220.864 105.675 221.115 105.675 221.368V221.51C105.709 221.913 105.902 222.286 106.212 222.546L106.344 222.657C106.596 222.868 106.897 223.012 107.219 223.075L108.253 223.275C108.498 223.322 108.749 223.335 108.997 223.311L109.317 223.281C109.585 223.255 109.842 223.156 110.058 222.994C110.256 222.847 110.413 222.652 110.515 222.427L110.622 222.192L111.201 220.775L112.099 218.137C112.162 217.952 112.321 217.815 112.514 217.78C112.681 217.75 112.854 217.8 112.978 217.917L113.478 218.384C113.574 218.474 113.66 218.573 113.736 218.68L114.728 220.093L115.707 221.239C115.86 221.419 115.988 221.619 116.087 221.833C116.536 222.807 117.541 223.4 118.61 223.323L119.044 223.291C119.495 223.258 119.933 223.131 120.331 222.916L121.176 222.461C121.503 222.285 121.777 222.025 121.971 221.708C122.254 221.244 122.346 220.689 122.228 220.159L122.204 220.052C122.133 219.733 121.996 219.432 121.803 219.168L121.096 218.204L119.201 215.79L116.78 212.956L116.415 212.411C116.242 212.151 116.149 211.845 116.149 211.532C116.149 211.228 116.236 210.931 116.4 210.676L119.622 205.662L125.412 198.473L127.464 195.902L128.803 193.826C128.857 193.741 128.892 193.646 128.906 193.546L128.934 193.331C128.966 193.095 128.808 192.874 128.574 192.827C128.502 192.813 128.428 192.816 128.357 192.837L127.126 193.202C126.721 193.322 126.331 193.487 125.963 193.694L124.464 194.537L124.314 194.646C121.401 196.739 118.654 199.054 116.096 201.569L113.201 204.875L112.373 205.745C112.263 205.859 112.112 205.924 111.953 205.924C111.777 205.924 111.611 205.845 111.501 205.708L111.254 205.4L110.597 204.453C110.403 204.175 110.232 203.883 110.083 203.579Z" fill="#52B563"/>
<path d="M97.279 222.931L93.3902 223.181C93.2712 223.189 93.1517 223.182 93.0344 223.161L92.9175 223.14C92.7294 223.106 92.5541 223.022 92.4105 222.895C92.2441 222.749 92.1283 222.553 92.0799 222.337L91.7499 220.865L91.5733 220.004L91.4677 219.272L91.3881 218.484C91.3709 218.314 91.3926 218.143 91.4514 217.983C91.5308 217.767 91.6745 217.58 91.8631 217.448L92.022 217.337C92.3146 217.133 92.6628 217.024 93.0196 217.024H93.4752H94.2971C94.5184 217.024 94.7341 216.954 94.9137 216.825C95.1109 216.683 95.2531 216.477 95.3163 216.243L95.3726 216.034C95.4107 215.893 95.4299 215.747 95.4299 215.601V213.814C95.4299 213.456 95.3033 213.109 95.0724 212.835C94.9594 212.7 94.824 212.587 94.6723 212.499L94.3818 212.33C93.7254 211.949 93.213 211.363 92.9241 210.661L92.9048 210.614C92.8274 210.426 92.766 210.232 92.7214 210.033L92.5438 209.242C92.4962 209.03 92.4991 208.81 92.5523 208.6C92.6363 208.267 92.8405 207.978 93.1256 207.787L94.2922 207.008C94.6262 206.785 94.9912 206.612 95.3756 206.495C95.8996 206.336 96.4503 206.283 96.9951 206.339L99.1809 206.567H101.131C101.737 206.567 102.313 206.834 102.705 207.296C103.022 207.669 103.196 208.143 103.196 208.633V208.913C103.196 209.195 103.154 209.475 103.071 209.744L102.724 210.871C102.546 211.451 102.417 212.046 102.34 212.647L102.087 214.619V216.748C102.087 217.055 102.222 217.347 102.456 217.546L103.407 218.226L103.851 218.596C104.218 218.902 104.499 219.298 104.667 219.745C104.845 220.222 104.888 220.739 104.79 221.238L104.721 221.591C104.657 221.92 104.5 222.224 104.269 222.468C103.985 222.767 103.606 222.958 103.196 223.008L102.097 223.141C101.809 223.175 101.518 223.184 101.229 223.167L97.279 222.931Z" fill="#52B563"/>
<path d="M76.54 209.959L76.7099 211.195C76.7907 211.783 76.246 212.263 75.6729 212.109C75.5707 212.082 75.4641 212.074 75.3589 212.087L74.858 212.147C74.4336 212.197 74.0321 212.367 73.6997 212.636C73.3159 212.946 73.0418 213.379 72.9219 213.858C72.8057 214.322 72.8345 214.818 73.0075 215.264L73.1994 215.759C73.3126 216.051 73.472 216.323 73.6715 216.564C74.1192 217.105 74.747 217.466 75.4397 217.582L77.0146 217.844C77.5495 217.933 78.0645 218.115 78.5362 218.382L78.6474 218.445C79.3737 218.857 79.961 219.475 80.3347 220.222C80.4759 220.503 80.585 220.8 80.6598 221.107L80.9191 222.168C81.0187 222.576 81.2233 222.95 81.5126 223.254C81.872 223.632 82.3446 223.883 82.859 223.968L83.1884 224.023C83.4868 224.073 83.7905 224.083 84.0915 224.052L85.5948 223.899C85.9994 223.857 86.3958 223.757 86.7713 223.601L87.2268 223.411C87.3825 223.347 87.5254 223.255 87.6488 223.14C88.0196 222.794 88.1777 222.277 88.0636 221.783L87.9337 221.221L87.6718 219.547L87.5452 218.947C87.4916 218.693 87.5289 218.428 87.6506 218.198C87.8271 217.865 88.1605 217.645 88.5358 217.612L90.4099 217.451C90.7719 217.42 91.1097 217.256 91.3584 216.991C91.6151 216.718 91.7579 216.357 91.7579 215.982V213.048C91.7579 212.781 91.7018 212.517 91.5931 212.273L91.5587 212.195C91.4158 211.874 91.1743 211.607 90.8693 211.433C90.6949 211.334 90.5037 211.267 90.3052 211.236L89.2405 211.071C88.5818 210.969 87.9124 210.955 87.25 211.029L85.2659 211.253C85.0913 211.273 84.9145 211.25 84.7507 211.186C84.3326 211.024 84.0571 210.621 84.0571 210.173V208.142C84.0571 207.831 84.093 207.521 84.1641 207.217L84.6077 205.325C84.6248 205.252 84.6485 205.181 84.6784 205.112L84.8623 204.693C84.946 204.502 85.1348 204.378 85.3435 204.378C85.5751 204.378 85.7793 204.53 85.8464 204.752L86.3967 206.572C86.5114 206.951 86.7226 207.294 87.0097 207.567L87.2168 207.764C87.5089 208.042 87.8965 208.197 88.2996 208.197C88.5747 208.197 88.845 208.125 89.0834 207.987L89.9131 207.51C91.8549 206.392 92.8521 204.148 92.3801 201.958L92.2818 201.501L91.9675 197.735L91.7579 196.742L91.457 195.577C91.3795 195.277 91.2279 195.001 91.0163 194.775C90.7492 194.489 90.3987 194.295 90.0148 194.221L89.3377 194.089C88.9281 194.01 88.5086 193.995 88.0944 194.046L87.3207 194.141C86.2709 194.269 85.2525 194.584 84.313 195.07L82.7998 195.852L81.6774 196.643C80.6533 197.365 79.7713 198.27 79.0757 199.312C78.661 199.933 78.3159 200.598 78.0467 201.294L77.8742 201.74C77.492 202.729 77.2193 203.756 77.0609 204.804L76.8802 206L76.5323 209.572C76.5198 209.701 76.5224 209.831 76.54 209.959Z" fill="#52B563"/>
<path d="M95.1555 202.796L94.8876 195.741C94.8657 195.164 95.0751 194.603 95.4691 194.182L95.5233 194.124C95.7069 193.927 95.9319 193.774 96.1819 193.676C96.551 193.531 96.9575 193.511 97.3392 193.619L97.5789 193.687C97.9021 193.778 98.204 193.933 98.4673 194.142L101.231 196.335L103.664 198.799C103.969 199.108 104.19 199.491 104.304 199.911C104.464 200.497 104.407 201.12 104.145 201.668L103.708 202.581L102.952 203.985C102.825 204.221 102.654 204.43 102.448 204.602C102.07 204.917 101.594 205.09 101.102 205.09H100.809H99.9133L97.9104 204.823H97.377C97.0341 204.823 96.6955 204.747 96.3855 204.6L96.3602 204.588C96.165 204.496 95.9849 204.375 95.826 204.228L95.8092 204.213C95.5961 204.017 95.4275 203.777 95.3146 203.51C95.2188 203.284 95.1649 203.042 95.1555 202.796Z" fill="#52B563"/>
<rect x="49" y="204.616" width="102" height="16.5828" rx="8.29141" fill="#3B404A"/>
<circle cx="100.078" cy="213.925" r="27.9248" fill="#656C79"/>
<path d="M142.25 211.495L141.094 213.972C140.859 214.475 141.141 215.067 141.68 215.201L141.969 215.274C142.274 215.35 142.585 215.169 142.667 214.865L142.755 214.542C142.848 214.201 143.296 214.121 143.501 214.409C143.645 214.61 143.932 214.644 144.118 214.481L144.236 214.377C144.573 214.083 145.102 214.281 145.162 214.724L145.169 214.769C145.215 215.113 145.549 215.341 145.886 215.26L146.301 215.16C146.81 215.038 147.131 214.536 147.028 214.024L146.596 211.863C146.452 211.146 145.586 210.853 145.037 211.336L144.992 211.376C144.621 211.703 144.054 211.664 143.73 211.289C143.308 210.801 142.523 210.91 142.25 211.495Z" fill="#54B561"/>
<path d="M135.479 213.925C135.219 213.095 135.909 211.779 136.479 210.936C136.664 210.663 137.019 210.576 137.322 210.708C137.716 210.88 137.87 211.356 137.699 211.751C137.393 212.452 137.202 213.221 137.747 213.221C138.342 213.221 138.682 212.237 138.836 211.44C138.9 211.108 139.152 210.836 139.485 210.78C139.931 210.706 140.345 211.045 140.32 211.497C140.142 214.697 138.318 215.351 137.356 215.255C136.86 215.229 135.791 214.926 135.479 213.925Z" fill="#54B561"/>
<path d="M130.238 212.752C130.524 211.177 132.331 210.538 133.622 210.415C134.052 210.374 134.383 210.736 134.383 211.168C134.383 211.646 133.982 212.015 133.505 212.043C132.712 212.09 131.959 212.314 131.959 213.065C131.959 213.524 132.221 213.646 132.48 213.596C132.887 213.517 133.354 213.065 133.769 213.065C134.203 213.065 134.523 213.469 134.424 213.891L134.167 214.984C134.064 215.418 133.677 215.724 133.232 215.724H132.5C132.374 215.724 132.271 215.622 132.271 215.496C132.271 215.365 132.161 215.262 132.031 215.25C131.112 215.163 129.951 214.331 130.238 212.752Z" fill="#54B561"/>
<path d="M58.3032 211.733L58.5827 211.015C58.701 210.711 58.9896 210.506 59.3158 210.494C60.9949 210.436 61.134 210.442 61.2807 210.514C62.8803 211.29 62.8248 212.17 62.3942 212.781C62.1344 213.15 61.987 213.631 62.1971 214.03C62.4252 214.464 62.2582 215 61.8243 215.227L61.4548 215.421C61.1847 215.562 60.8512 215.461 60.706 215.193L60.5417 214.889C60.3455 214.527 59.8028 214.614 59.7291 215.019C59.6812 215.282 59.41 215.441 59.1573 215.353L58.5498 215.143C58.0296 214.963 57.7572 214.392 57.9441 213.875L58.5543 212.185C58.5895 212.087 58.5297 211.981 58.428 211.961C58.3247 211.94 58.2651 211.832 58.3032 211.733Z" fill="#54B561"/>
<path d="M52.5552 214.184L53.4062 211.205C53.4888 210.916 53.6994 210.682 53.9963 210.633C54.9391 210.48 56.7761 210.493 57.135 211.374C57.8782 213.198 56.1116 214.128 54.8604 214.313C54.5673 214.357 54.319 214.594 54.319 214.89C54.319 215.217 54.0215 215.463 53.7007 215.401L53.25 215.314C52.7315 215.214 52.4101 214.692 52.5552 214.184Z" fill="#54B561"/>
<ellipse cx="66.4057" cy="213.047" rx="2.46447" ry="2.87148" transform="rotate(31.6413 66.4057 213.047)" fill="#54B561"/>
<ellipse cx="66.4411" cy="213.021" rx="0.69379" ry="0.80837" transform="rotate(31.6413 66.4411 213.021)" fill="#3B404A"/>
<path d="M55.727 212.204C55.931 212.571 55.592 212.825 55.1652 212.936C54.8086 213.029 54.5597 212.67 54.6547 212.314C54.7317 212.025 55.0161 211.743 55.3048 211.821C55.4468 211.859 55.5918 211.961 55.727 212.204Z" fill="#3B404A"/>
<path d="M61.1516 212.339C61.3168 212.664 61.0553 212.892 60.7143 212.998C60.4 213.095 60.1748 212.776 60.2527 212.457C60.3189 212.185 60.5963 211.893 60.8514 212.008C60.9531 212.054 61.0553 212.149 61.1516 212.339Z" fill="#3B404A"/>
<path d="M107.539 210.273L107.358 209.903C107.042 209.258 106.554 208.712 105.947 208.328L105.908 208.296C105.797 208.208 105.659 208.159 105.517 208.159C105.412 208.159 105.309 208.186 105.217 208.236L105.102 208.298C104.965 208.373 104.844 208.475 104.747 208.599L104.303 209.168L103.502 210.555L103.032 211.457C102.98 211.556 102.937 211.66 102.903 211.767L102.868 211.879C102.76 212.22 102.77 212.586 102.895 212.921C102.935 213.025 102.984 213.125 103.044 213.218L104.514 215.515L104.641 215.673C104.777 215.843 104.851 216.054 104.851 216.272C104.851 216.492 104.789 216.707 104.673 216.893L104.43 217.281L103.544 218.331L102.699 219.376C102.562 219.546 102.464 219.745 102.413 219.958L102.394 220.04C102.32 220.347 102.366 220.67 102.521 220.944C102.612 221.106 102.738 221.245 102.89 221.352L103.376 221.694L103.791 221.909C104.175 222.109 104.396 222.525 104.345 222.955L104.206 223.652C104.186 223.748 104.159 223.841 104.122 223.931C104.047 224.119 104.008 224.32 104.008 224.523V224.636C104.035 224.959 104.19 225.258 104.438 225.466L104.544 225.555C104.746 225.725 104.987 225.84 105.245 225.89L106.073 226.05C106.269 226.088 106.47 226.098 106.669 226.079L106.925 226.055C107.14 226.034 107.346 225.955 107.519 225.826C107.677 225.707 107.803 225.551 107.885 225.371L107.971 225.183L108.435 224.048L109.154 221.935C109.204 221.786 109.331 221.677 109.486 221.649C109.62 221.624 109.758 221.665 109.858 221.758L110.258 222.132C110.335 222.204 110.404 222.284 110.465 222.37L111.259 223.501L112.044 224.419C112.167 224.563 112.269 224.724 112.348 224.896C112.708 225.675 113.513 226.15 114.369 226.088L114.717 226.063C115.078 226.037 115.429 225.935 115.748 225.763L116.424 225.398C116.686 225.257 116.906 225.049 117.061 224.795C117.288 224.424 117.361 223.979 117.267 223.554L117.248 223.469C117.191 223.213 117.081 222.972 116.926 222.761L116.36 221.988L114.843 220.055L112.903 217.785L112.611 217.348C112.472 217.14 112.398 216.895 112.398 216.644C112.398 216.401 112.467 216.163 112.599 215.959L115.18 211.942L119.817 206.184L121.461 204.124L122.533 202.462C122.577 202.394 122.605 202.317 122.616 202.238L122.639 202.066C122.664 201.876 122.538 201.699 122.35 201.662C122.293 201.65 122.233 201.653 122.176 201.67L121.19 201.962C120.866 202.058 120.554 202.19 120.259 202.356L119.058 203.031L118.938 203.118C116.605 204.795 114.404 206.649 112.355 208.664L110.037 211.312L109.373 212.009C109.285 212.101 109.164 212.153 109.037 212.153C108.896 212.153 108.763 212.089 108.675 211.979L108.477 211.732L107.95 210.974C107.796 210.751 107.658 210.517 107.539 210.273Z" fill="#52B563"/>
<path d="M97.2832 225.775L94.1683 225.975C94.073 225.982 93.9773 225.976 93.8833 225.959L93.7897 225.942C93.639 225.915 93.4985 225.847 93.3836 225.746C93.2503 225.629 93.1575 225.473 93.1187 225.299L92.8544 224.12L92.713 223.43L92.6283 222.844L92.5646 222.213C92.5508 222.077 92.5682 221.94 92.6153 221.811C92.6789 221.638 92.794 221.489 92.9451 221.383L93.0724 221.295C93.3067 221.131 93.5856 221.043 93.8714 221.043H94.2364H94.8947C95.072 221.043 95.2447 220.987 95.3886 220.884C95.5466 220.77 95.6605 220.605 95.7111 220.418L95.7562 220.25C95.7867 220.137 95.8021 220.021 95.8021 219.903V218.472C95.8021 218.185 95.7007 217.907 95.5157 217.688C95.4252 217.58 95.3168 217.489 95.1952 217.419L94.9625 217.284C94.4367 216.979 94.0263 216.509 93.7949 215.947L93.7795 215.909C93.7174 215.758 93.6683 215.603 93.6326 215.444L93.4903 214.81C93.4522 214.64 93.4545 214.464 93.4971 214.296C93.5644 214.029 93.728 213.798 93.9563 213.645L94.8907 213.021C95.1583 212.842 95.4507 212.704 95.7585 212.61C96.1783 212.482 96.6194 212.44 97.0558 212.485L98.8066 212.668H100.368C100.854 212.668 101.315 212.881 101.63 213.251C101.883 213.55 102.023 213.93 102.023 214.322V214.546C102.023 214.772 101.989 214.997 101.923 215.213L101.645 216.115C101.502 216.58 101.399 217.056 101.337 217.538L101.134 219.117V220.822C101.134 221.069 101.242 221.302 101.43 221.462L102.192 222.006L102.547 222.302C102.841 222.547 103.066 222.865 103.201 223.223C103.343 223.605 103.378 224.019 103.299 224.419L103.244 224.701C103.193 224.965 103.067 225.209 102.882 225.404C102.655 225.644 102.351 225.797 102.023 225.836L101.142 225.943C100.911 225.971 100.679 225.978 100.447 225.964L97.2832 225.775Z" fill="#52B563"/>
<path d="M80.6713 215.384L80.8074 216.374C80.8722 216.845 80.4358 217.23 79.9768 217.106C79.8949 217.084 79.8095 217.078 79.7253 217.088L79.3241 217.136C78.9841 217.177 78.6625 217.313 78.3962 217.528C78.0888 217.777 77.8693 218.124 77.7733 218.507C77.6802 218.879 77.7032 219.276 77.8418 219.633L77.9955 220.03C78.0862 220.264 78.2139 220.481 78.3737 220.675C78.7322 221.108 79.2351 221.397 79.7899 221.49L81.0515 221.7C81.4799 221.771 81.8924 221.917 82.2703 222.131L82.3594 222.182C82.941 222.511 83.4115 223.006 83.7109 223.604C83.824 223.83 83.9113 224.068 83.9713 224.313L84.1789 225.164C84.2587 225.49 84.4226 225.79 84.6543 226.034C84.9422 226.336 85.3208 226.537 85.7328 226.606L85.9966 226.65C86.2357 226.689 86.4789 226.697 86.72 226.672L87.9241 226.55C88.2482 226.517 88.5657 226.436 88.8665 226.311L89.2314 226.159C89.3561 226.108 89.4706 226.034 89.5694 225.942C89.8664 225.665 89.993 225.251 89.9016 224.855L89.7976 224.405L89.5878 223.064L89.4864 222.583C89.4435 222.38 89.4733 222.168 89.5708 221.984C89.7122 221.717 89.9792 221.54 90.2799 221.515L91.781 221.385C92.071 221.36 92.3415 221.229 92.5407 221.017C92.7463 220.798 92.8608 220.509 92.8608 220.209V217.859C92.8608 217.644 92.8158 217.433 92.7287 217.237L92.7012 217.175C92.5868 216.918 92.3933 216.705 92.149 216.565C92.0093 216.485 91.8561 216.432 91.6971 216.407L90.8443 216.275C90.3167 216.193 89.7805 216.182 89.25 216.241L87.6607 216.421C87.5208 216.436 87.3792 216.418 87.248 216.367C86.9131 216.237 86.6925 215.915 86.6925 215.555V213.929C86.6925 213.68 86.7212 213.431 86.7781 213.188L87.1335 211.672C87.1472 211.614 87.1661 211.557 87.1902 211.502L87.3374 211.166C87.4045 211.013 87.5557 210.914 87.7228 210.914C87.9083 210.914 88.072 211.036 88.1256 211.213L88.5665 212.671C88.6583 212.975 88.8275 213.25 89.0575 213.468L89.2234 213.626C89.4573 213.849 89.7678 213.973 90.0907 213.973C90.311 213.973 90.5275 213.915 90.7185 213.805L91.3831 213.422C92.9385 212.527 93.7372 210.729 93.3591 208.975L93.2804 208.61L93.0286 205.593L92.8608 204.797L92.6198 203.864C92.5576 203.624 92.4363 203.403 92.2667 203.222C92.0528 202.993 91.772 202.838 91.4645 202.778L90.9222 202.673C90.5941 202.609 90.2581 202.597 89.9263 202.638L89.3066 202.714C88.4657 202.817 87.65 203.069 86.8975 203.458L85.6854 204.085L84.7863 204.718C83.9661 205.297 83.2596 206.021 82.7024 206.856C82.3702 207.353 82.0938 207.886 81.8781 208.444L81.74 208.801C81.4339 209.593 81.2155 210.416 81.0886 211.255L80.9438 212.213L80.6652 215.074C80.6551 215.177 80.6572 215.281 80.6713 215.384Z" fill="#52B563"/>
<path d="M95.5822 209.647L95.3676 203.995C95.3501 203.534 95.5178 203.084 95.8334 202.747L95.8768 202.7C96.0238 202.543 96.2041 202.421 96.4043 202.342C96.6999 202.225 97.0256 202.209 97.3313 202.296L97.5233 202.35C97.7822 202.424 98.0241 202.548 98.2349 202.715L100.449 204.471L102.397 206.445C102.642 206.693 102.819 207 102.91 207.336C103.038 207.805 102.993 208.304 102.783 208.743L102.433 209.474L101.827 210.599C101.725 210.788 101.588 210.956 101.423 211.093C101.121 211.346 100.739 211.484 100.346 211.484H100.111H99.3932L97.7889 211.27H97.3616C97.0869 211.27 96.8157 211.209 96.5674 211.092L96.5471 211.082C96.3908 211.008 96.2465 210.911 96.1193 210.794L96.1058 210.782C95.9351 210.624 95.8 210.433 95.7096 210.219C95.6329 210.037 95.5897 209.844 95.5822 209.647Z" fill="#52B563"/>
<circle cx="95.1503" cy="214.629" r="2.03374" fill="#1E1E1E"/>
<circle cx="103.911" cy="214.629" r="2.03374" fill="#1E1E1E"/>
<line x1="95.1503" y1="214.442" x2="105.006" y2="214.442" stroke="#1E1E1E"/>
</svg>
